<?xml version="1.0" encoding="UTF-8"?>
<svg id="Layer_1" data-name="Layer 1" xmlns="http://www.w3.org/2000/svg" viewBox="0 0 529.15 599.47">
  <defs>
    <style>
      .cls-1 {
        font-family: Sirenia-Regular, Sirenia;
        font-size: 100.98px;
      }

      .cls-1, .cls-2, .cls-3 {
        isolation: isolate;
      }

      .cls-1, .cls-3 {
        fill: #231f20;
      }

      .cls-4 {
        fill: #f7e0ba;
      }

      .cls-3 {
        font-family: Roboto-Light, Roboto;
        font-size: 44.88px;
        font-weight: 300;
      }

      .cls-5 {
        fill: #fff;
      }

      .cls-6 {
        letter-spacing: -.02em;
      }

      .cls-7 {
        letter-spacing: 0em;
      }

      .cls-8 {
        fill: #333;
      }
    </style>
  </defs>
  <g>
    <path class="cls-4" d="M236.82,445.59c-58.8-7.17-153.79-30.88-190.04-103.51C13.56,275.49,8.28,209.74,63.71,149.95c26.25-28.32,68.84-35.72,90.03-70.78C204.69-5.12,325.44-25.15,400.2,33.82c40.7,32.11,144.01,148.29,93.46,333.11-22.34,81.61-132.65,93.81-256.86,78.68h0l.02-.03Z"/>
    <g>
      <path class="cls-5" d="M295.72,288.97c1.4,7.24,15.76,10.55,24.49,11.11,6.54.42,14.36.95,18.51-4.26,2.27-2.86,3.53-7.55,1.71-11.11-1.68-3.28-5.33-4.21-10.24-5.41-5.81-1.4-11.84-.67-23.65.84-4.77.62-8.28,1.23-9.96,3.98-1.35,2.19-.9,4.66-.84,4.85h-.03Z"/>
      <path class="cls-5" d="M356.09,211.8c-1.12,3.42-2.95,9.12-.28,15.09.81,1.8,2.81,6.31,7.41,7.69,5.5,1.66,12.2-1.88,14.25-7.13,2.24-5.81-2.13-11.28-5.41-15.37-1.23-1.57-7.18-9-11.67-7.41-2.22.79-3.09,3.45-4.26,7.13h-.03Z"/>
      <path class="cls-5" d="M234.21,224.34c.79-6.12,6.23-11.84,12.54-11.39,6.96.5,12.15,8.3,10.55,15.37-1.57,6.87-9.26,11.64-15.65,9.4-5.39-1.88-8.08-8.11-7.41-13.38h-.03Z"/>
      <g>
        <path class="cls-8" d="M132.77,173.63c-23.68,21.8-26.96-9.68-26.96-9.68-7.43,19.24,7.69,27.57,12.51,30.63,1.01.65,1.35,1.91.87,2.97-1.29,2.92-19.33,9.45-14.75,35.48,1.94,11,7.35,14.42,7.52,21.12.2,7.35-5.47,14.9-8.16,20.67-6.68,14.31,5.39,62.44,28.3,105.56,1.85,3.48,5.47,2.41,6.42,1.54,1.88-1.68,2.36-4.38,3.51-7.29,4.99-12.88,7.13-38.15,3.81-51.5-.73-3-4.18-10.91-.76-8.86,6.23,4.68,10.6,8.7,11.89,16.72,2.55,16.02.59,45.44-9.43,58.77-6.45,8.58-14.53,6-20.56-1.49-8.33-10.32-30.04-64.21-35.99-104.41-1.63-10.97,8.16-18.32,10.86-27.38,1.51-5.08-9.68-18.26-6.65-37.11,1.43-8.81,6.14-15.71,12.57-21.91-9.12-5.92-14.98-14.67-13.16-26,1.32-8.28,7.74-13.72,9.82-21.23,0,0,.17-6.2,1.49-5.58,7.32,3.39,5.89,18.57,8.28,22.5,4.57,7.49,11.42,4.82,18.09,4.99.73,0,1.04.98.5,1.46h0l-.03.03Z"/>
        <path class="cls-8" d="M460.58,351.36c-4.07,2.33-10.24-2.24-11.81-6.68-5.05-14.03,4.66-.45,6.54-1.66,3,.48-3.48-8.86,5.22-17.78,2.89-2.97,7.49-7.21,9.37-11.08,12.65-26.06,12.68-52.04-9.51-75.12-11.25-11.7-5.25-36.3-9.51-52.76-3.48-13.44-24.99-20.84-24.99-20.84.81-1.43,4.04-1.4,5.97-1.43,2.58-.06,10.69,1.23,14.53,3.65,21.01,13.07,14.31,37.14,18.79,58.29,2.44,11.44,17.28,24.04,19.69,36.47,3.51,17.98,0,31-2.24,39.72-3.7,14.64-12.17,24.71-18.29,29.93-4.04,3.45.73,16.72-3.76,19.3h0Z"/>
        <path class="cls-8" d="M327.28,335.34c1.46-3.31,11.89,12.26,13.94,15.4,11.64,17.9,20.51,29.26,36.13,24.83,5.86-1.66,14.92-18.96,13.89-12.26-.59,3.87-6.76,15.88-12.88,18.37s-11.7,3.17-17.73,1.07c-5.58-1.96-10.52-5.39-15.2-8.92,7.35,28.33-11.56,47.49-11.95,47.83-7.35,6.06-16.49,4.35-20.62.45-8.16-7.74-9.03-16.94-12.82-26.99-1.35-3.53-6.4-11.87-6.4-16.41,2.08-2.05,7.46,7.52,8.25,8.89,2.72,4.77,12.15,25.16,21.35,25.95,9.9.87,13.69-8.95,14.61-11,3.65-7.97,5.11-14.25,4.8-22.83-.36-9.87-4.77-20.67-9.68-30.77l-2.16-4.99"/>
        <path class="cls-8" d="M318.5,331.61c11.33,21.77,9.54,35.85,9.12,40.59-.53,6,1.51,18.6-4.26,17.81-2.83-.39-2.64-15.46-2.1-22.05.73-8.95-.14-17.98-1.99-26.68-1.35-6.34-2.44-9.28-.76-9.71"/>
        <path class="cls-8" d="M328.12,315.45c-1.94,2.1-3.31,5.19-5.69,5.83-9.31,2.5-12.2-4.54-17.67-10.01-1.88-1.88-8.72-7.69-12.85-10.24-11.73-7.27-7.01-18.99,4.57-22.47,5.78-1.74,29.31-3.14,35.91-3.17,4.35,0,6.03.93,9.09,2.64,3.09,1.71,3.73,7.04,3.73,8.25,0,5.13-4.38,11.98-5.64,14-4.57,7.21-6.59,9.99-11.42,15.18h-.03ZM302.65,287.18c.14,3.23,7.85,3.79,10.91,4.12,4.32.45,14.25-.31,18.12-2.02,2.08-.9,4.43-2.08,4.54-4.54.08-1.96-3.79-1.23-6.09-.95-2.97.36-5.33.53-7.57.62-6.56.2-20.06,0-19.94,2.81h0l.03-.03Z"/>
        <path class="cls-8" d="M272.13,76.2c-6.4,3.06-13.8.11-21.15.87-13.69,1.46-24.99,11.75-33.69,21.6-1.94,2.19-9.37,12.2-14.14,13.13-11.59,2.27-22.47,2.24-32.01,10.66-12.17,10.74-19.44,21.88-18.54,38.79.08,1.74-.45,7.83-1.01,8.81-1.15,1.99-.81,4.99-4.99,4.82-4.88-.17-4.8-22.41-4.15-25.16,2.83-12.06,9.12-22.89,18.91-30.74,10.66-8.56,24.32-10.52,37.42-12.96,4.74-7.43,9.76-14.81,16.07-21.01,10.24-10.07,35.88-17.36,49.71-14,2.02.48,9.09,2.5,7.57,5.16h0v.03Z"/>
        <path class="cls-8" d="M381.31,130.51c-6.54-2.97-16.24-4.01-26.76-.17-2.36.87-7.6,3.2-7.85,1.85,4.07-9.65,23.45-9.73,32.54-8.72,28.72,3.23,40.37,46.54,41.8,51.22,4.6,15.29-4.6,26.48,6.28,45.53,1.35,2.38,6.06,11.98,6.2,12.71.17,1.09,0,1.21-1.07,1.07-10.97-7.24-21.91-22.47-20.28-36.16,3.2-27.04-10.44-58.09-30.83-67.35h-.03v.03Z"/>
        <path class="cls-8" d="M256.14,241.29c-5.78,3.67-10.27,5.72-17.42,4.85-4.01-.48-7.71-5.81-10.18-2.69-15.01,18.99-23.31,14.98-22.05,13.46,14.64-17.76,14.08-25.25,15.23-29.06,2.02-6.62,6.17-17.67,18.71-20.45,7.83-1.74,16.89,3.53,20.65,10.1,3.09,5.41,5.05,9.99,1.88,15.91-1.26,2.36-4.63,6.51-6.76,7.85h-.06v.03ZM241.89,230.01c1.15,1.35,4.71,1.71,5.83.14,2.13-2.95,4.18-8.05,1.01-9.82-1.18-.67-4.26.5-5.25,1.43-2.66,2.55-4.4,4.99-1.63,8.22h0l.03.03Z"/>
        <path class="cls-8" d="M384.84,221.85c1.8,2.33,7.27,9.26,9.79,11.22,2.1,1.63,4.71,2.27,7.04,3.48-6.26,8.33-16.1-.25-19.66-4.88-.59-.14-8.89,5.44-10.44,6.34-5.25,3.03-9.51,3.56-13.18,1.94-2.5-1.09-8.58-6.37-10.21-9.43-4.49-8.44-1.37-22.3,7.24-26.82,3.62-1.91,9.48-.93,12.9,1.09,9.54,5.64,9.93,8.58,16.49,17.06h.03ZM363.61,217.81c-3.42,3.39-1.94,10.97,3.65,8.89,4.18-1.54-.28-12.26-3.65-8.89Z"/>
        <path class="cls-8" d="M171.74,311.05c5.75,12.37,12.29,28.67,18.4,40.93,13.55,27.13,29.06,35.74,40.79,41.01,9.57,4.32,48.36,13.02,42.81,16.52-2.38,1.49-30.04,4.91-61.52-14.28-24.4-14.87-35.32-47.49-44.29-74-1.43-4.21-4.85-17.64-4.6-18.57.62-2.16,5.95,3.09,8.44,8.44v-.06h-.03Z"/>
        <path class="cls-8" d="M425.07,270.99c1.94.95,5.95,7.94,7.91,17.22,2.97,14.08,2.02,21.57,1.94,28.11-.17,13.86-4.91,27.77-13.75,37.03-12.85,13.46-16.1,10.88-18.51,12.03-1.91-1.91,10.29-16.58,11.92-19.22,10.55-17.03,14.28-41.6,10.01-61.12-1.01-4.57-5.67-17.06.45-14.11v.06h.03Z"/>
        <path class="cls-8" d="M158.08,248.13c-1.29-1.88,9.57-10.32,11.14-13.07,10.77-19.22-7.35-47.04,8.33-73.41,4.77-8.02,16.94-15.04,18.68-11.42.45.93-13.89,4.01-17.81,29.15-2.55,16.33,6.9,45.56-1.32,58.57-7.41,11.73-19.02,10.21-19.02,10.21h0v-.03Z"/>
        <path class="cls-8" d="M311.74,334.75c.65.76-.31,1.26-1.91,3.31-4.15,5.3-4.77,11.14-7.29,17.17-3.62,8.58-4.18,11.02-10.35,18.32-10.21,12.09-22.78,16.52-39.08,15.18-7.1-.59-19.1-2.83-21.8-7.15-.84-1.37,0-1.29.9-1.57,3.11-.98,9.23-1.01,12.43-1.01,2.72,0,15.99.79,18.54.53,13.3-1.43,22.33-11.22,30.77-21.74,4.85-6.06,7.57-14.67,12.96-20.62.95-1.04,3.39-4.18,4.88-2.47l-.06.06h0Z"/>
        <path class="cls-8" d="M384.23,110.32c5.89-.25,11.95-1.12,10.74,2.19-7.55,7.8-19.5,6.93-28.42,2.02-12.96-7.15-14.59-24.8-27.32-31.45-11.64-6.06-23.39,6.54-27.49,6.14-3.31-.31,2.13-4.57,4.26-6.76,6.56-6.84,17.28-8.56,26.23-5.86,13.46,4.01,18.21,17.11,25.19,27.27,2.5,3.65,11.14,6.7,16.8,6.45Z"/>
        <path class="cls-8" d="M320.63,57.41c.53-.06.98.48.79.95-1.01,2.47-5.11,4.35-10.72,10.6-4.97,5.53-11.3,11.73-10.29,18.32,1.35,8.7-2.27,6.73-2.5,6.17-5.95-14.45,6.37-22.08,5.05-23.11-1.63-1.32-16.63,9.2-17.9,24.38-.45,5.27-1.99,6.51-2.64,4.94-1.99-4.94.36-19.52,4.8-25.11,11.61-14.7,29.4-16.66,33.44-17.11h0l-.03-.03Z"/>
        <path class="cls-8" d="M230.81,177.36c1.94,1.49-5.69,2.78-6.45,2.97-7.52,1.96-13.18,7.88-16.52,13.55-7.24,12.34,2.08,21.82-1.82,32.34-2.36,6.4-6.37,8.7-12.26,9.87-2.92-2.19,3.87-5.67,5.55-17.2.81-5.53-1.07-11.78-.56-17.36.81-8.95,4.18-16.49,11.81-21.07,6.31-3.79,12.54-3.79,20.28-3.14h0l-.03.03Z"/>
        <path class="cls-8" d="M348.83,149.36c-3.81-2.86,11.98-4.21,20.98-1.04,14.87,5.22,14.87,28.58,22.55,38.99,1.32,1.77,5.97,5.47,2.64,7.52-1.12.7-4.1-.03-5.22-.7-12.85-7.63-11.02-27.07-20.76-38.01-5.95-6.68-16.75-4.18-20.17-6.76h-.03Z"/>
        <path class="cls-8" d="M372.42,398.26c18.49-10.97,23.42-21.23,26.54-23.87,2.52-2.13.36,3.11-.67,5.5-3.06,6.96-9.71,14.61-17.06,20.14-13.38,10.07-30.41,12.01-28.22,6.7,1.99-4.77,10.44-3.17,19.44-8.5h0l-.03.03Z"/>
      </g>
    </g>
  </g>
  <g class="cls-2">
    <g class="cls-2">
      <text class="cls-1" transform="translate(0 530.49)"><tspan x="0" y="0">MuffinPupps</tspan></text>
    </g>
  </g>
  <g class="cls-2">
    <g class="cls-2">
      <text class="cls-3" transform="translate(112.78 587.31)"><tspan class="cls-6" x="0" y="0">r</tspan><tspan x="14.22" y="0">aised with l</tspan><tspan class="cls-7" x="234.01" y="0">o</tspan><tspan x="258.82" y="0">ve</tspan></text>
    </g>
  </g>
</svg>