<?xml version="1.0" encoding="UTF-8"?>
<svg id="Layer_1" xmlns="http://www.w3.org/2000/svg" version="1.1" viewBox="0 0 218.9 201.6">
  <!-- Generator: Adobe Illustrator 29.2.1, SVG Export Plug-In . SVG Version: 2.1.0 Build 116)  -->
  <defs>
    <style>
      .st0 {
        fill: #fff;
      }

      .st1 {
        fill: #f7e0ba;
        opacity: .5;
      }
    </style>
  </defs>
  <path class="st1" d="M97.4,195.4c-25.4-3.1-66.4-13.3-82-44.7C1.1,122-1.2,93.6,22.7,67.8c11.3-12.2,29.7-15.4,38.9-30.5C83.6.8,135.7-7.8,167.9,17.7c17.6,13.9,62.2,64,40.3,143.8-9.6,35.2-57.3,40.5-110.9,34h0s0,0,0,0Z"/>
  <g>
    <path class="st0" d="M52.5,78c-10.2,9.4-11.6-4.2-11.6-4.2-3.2,8.3,3.3,11.9,5.4,13.2.4.3.6.8.4,1.3-.6,1.3-8.3,4.1-6.4,15.3.8,4.7,3.2,6.2,3.2,9.1,0,3.2-2.4,6.4-3.5,8.9-2.9,6.2,2.3,27,12.2,45.6.8,1.5,2.4,1,2.8.7.8-.7,1-1.9,1.5-3.1,2.2-5.6,3.1-16.5,1.6-22.2-.3-1.3-1.8-4.7-.3-3.8,2.7,2,4.6,3.8,5.1,7.2,1.1,6.9.3,19.6-4.1,25.4-2.8,3.7-6.3,2.6-8.9-.6-3.6-4.5-13-27.7-15.5-45.1-.7-4.7,3.5-7.9,4.7-11.8.7-2.2-4.2-7.9-2.9-16,.6-3.8,2.7-6.8,5.4-9.5-3.9-2.6-6.5-6.3-5.7-11.2.6-3.6,3.3-5.9,4.2-9.2,0,0,0-2.7.6-2.4,3.2,1.5,2.5,8,3.6,9.7,2,3.2,4.9,2.1,7.8,2.2.3,0,.4.4.2.6h0s0,0,0,0Z"/>
    <path class="st0" d="M194,154.7c-1.8,1-4.4-1-5.1-2.9-2.2-6.1,2-.2,2.8-.7,1.3.2-1.5-3.8,2.3-7.7,1.2-1.3,3.2-3.1,4-4.8,5.5-11.2,5.5-22.5-4.1-32.4-4.9-5-2.3-15.7-4.1-22.8-1.5-5.8-10.8-9-10.8-9,.3-.6,1.7-.6,2.6-.6,1.1,0,4.6.5,6.3,1.6,9.1,5.6,6.2,16,8.1,25.2,1.1,4.9,7.5,10.4,8.5,15.7,1.5,7.8,0,13.4-1,17.1-1.6,6.3-5.3,10.7-7.9,12.9-1.7,1.5.3,7.2-1.6,8.3h0Z"/>
    <path class="st0" d="M136.5,147.8c.6-1.4,5.1,5.3,6,6.6,5,7.7,8.9,12.6,15.6,10.7,2.5-.7,6.4-8.2,6-5.3-.3,1.7-2.9,6.9-5.6,7.9-2.6,1.1-5,1.4-7.7.5-2.4-.8-4.5-2.3-6.6-3.9,3.2,12.2-5,20.5-5.2,20.6-3.2,2.6-7.1,1.9-8.9.2-3.5-3.3-3.9-7.3-5.5-11.6-.6-1.5-2.8-5.1-2.8-7.1.9-.9,3.2,3.2,3.6,3.8,1.2,2.1,5.2,10.9,9.2,11.2,4.3.4,5.9-3.9,6.3-4.7,1.6-3.4,2.2-6.2,2.1-9.9-.2-4.3-2.1-8.9-4.2-13.3l-.9-2.2"/>
    <path class="st0" d="M132.7,146.2c4.9,9.4,4.1,15.5,3.9,17.5-.2,2.6.7,8-1.8,7.7-1.2-.2-1.1-6.7-.9-9.5.3-3.9,0-7.8-.9-11.5-.6-2.7-1.1-4-.3-4.2"/>
    <path class="st0" d="M136.8,139.2c-.8.9-1.4,2.2-2.5,2.5-4,1.1-5.3-2-7.6-4.3s-3.8-3.3-5.5-4.4c-5.1-3.1-3-8.2,2-9.7,2.5-.8,12.7-1.4,15.5-1.4,1.9,0,2.6.4,3.9,1.1,1.3.7,1.6,3,1.6,3.6,0,2.2-1.9,5.2-2.4,6-2,3.1-2.8,4.3-4.9,6.6h0,0ZM125.8,127c0,1.4,3.4,1.6,4.7,1.8,1.9.2,6.2-.1,7.8-.9.9-.4,1.9-.9,2-2,0-.8-1.6-.5-2.6-.4-1.3.2-2.3.2-3.3.3-2.8,0-8.7,0-8.6,1.2h0Z"/>
    <path class="st0" d="M112.7,35.9c-2.8,1.3-6,0-9.1.4-5.9.6-10.8,5.1-14.5,9.3-.8.9-4,5.3-6.1,5.7-5,1-9.7,1-13.8,4.6-5.3,4.6-8.4,9.4-8,16.7,0,.8-.2,3.4-.4,3.8-.5.9-.3,2.2-2.2,2.1-2.1,0-2.1-9.7-1.8-10.9,1.2-5.2,3.9-9.9,8.2-13.3,4.6-3.7,10.5-4.5,16.2-5.6,2-3.2,4.2-6.4,6.9-9.1,4.4-4.3,15.5-7.5,21.5-6,.9.2,3.9,1.1,3.3,2.2h0Z"/>
    <path class="st0" d="M159.8,59.4c-2.8-1.3-7-1.7-11.6,0-1,.4-3.3,1.4-3.4.8,1.8-4.2,10.1-4.2,14-3.8,12.4,1.4,17.4,20.1,18,22.1,2,6.6-2,11.4,2.7,19.7.6,1,2.6,5.2,2.7,5.5,0,.5,0,.5-.5.5-4.7-3.1-9.5-9.7-8.8-15.6,1.4-11.7-4.5-25.1-13.3-29.1h0s0,0,0,0Z"/>
    <path class="st0" d="M105.8,107.2c-2.5,1.6-4.4,2.5-7.5,2.1-1.7-.2-3.3-2.5-4.4-1.2-6.5,8.2-10.1,6.5-9.5,5.8,6.3-7.7,6.1-10.9,6.6-12.5.9-2.9,2.7-7.6,8.1-8.8,3.4-.8,7.3,1.5,8.9,4.4,1.3,2.3,2.2,4.3.8,6.9-.5,1-2,2.8-2.9,3.4h0s0,0,0,0ZM99.6,102.3c.5.6,2,.7,2.5,0,.9-1.3,1.8-3.5.4-4.2-.5-.3-1.8.2-2.3.6-1.1,1.1-1.9,2.2-.7,3.5h0s0,0,0,0Z"/>
    <path class="st0" d="M161.3,98.8c.8,1,3.1,4,4.2,4.8.9.7,2,1,3,1.5-2.7,3.6-6.9-.1-8.5-2.1-.3,0-3.8,2.3-4.5,2.7-2.3,1.3-4.1,1.5-5.7.8-1.1-.5-3.7-2.7-4.4-4.1-1.9-3.6-.6-9.6,3.1-11.6,1.6-.8,4.1-.4,5.6.5,4.1,2.4,4.3,3.7,7.1,7.4h0ZM152.1,97.1c-1.5,1.5-.8,4.7,1.6,3.8,1.8-.7-.1-5.3-1.6-3.8Z"/>
    <path class="st0" d="M69.3,137.3c2.5,5.3,5.3,12.4,7.9,17.7,5.8,11.7,12.5,15.4,17.6,17.7,4.1,1.9,20.9,5.6,18.5,7.1-1,.6-13,2.1-26.6-6.2-10.5-6.4-15.2-20.5-19.1-31.9-.6-1.8-2.1-7.6-2-8,.3-.9,2.6,1.3,3.6,3.6h0s0,0,0,0h0Z"/>
    <path class="st0" d="M178.7,120c.8.4,2.6,3.4,3.4,7.4,1.3,6.1.9,9.3.8,12.1,0,6-2.1,12-5.9,16-5.5,5.8-6.9,4.7-8,5.2-.8-.8,4.4-7.2,5.1-8.3,4.6-7.4,6.2-18,4.3-26.4-.4-2-2.4-7.4.2-6.1h0s0,0,0,0h0Z"/>
    <path class="st0" d="M63.4,110.1c-.6-.8,4.1-4.5,4.8-5.6,4.6-8.3-3.2-20.3,3.6-31.7,2.1-3.5,7.3-6.5,8.1-4.9.2.4-6,1.7-7.7,12.6-1.1,7,3,19.7-.6,25.3-3.2,5.1-8.2,4.4-8.2,4.4h0s0,0,0,0Z"/>
    <path class="st0" d="M129.8,147.5c.3.3-.1.5-.8,1.4-1.8,2.3-2.1,4.8-3.1,7.4-1.6,3.7-1.8,4.8-4.5,7.9-4.4,5.2-9.8,7.1-16.9,6.6-3.1-.3-8.2-1.2-9.4-3.1-.4-.6,0-.6.4-.7,1.3-.4,4-.4,5.4-.4s6.9.3,8,.2c5.7-.6,9.6-4.8,13.3-9.4,2.1-2.6,3.3-6.3,5.6-8.9.4-.4,1.5-1.8,2.1-1.1h0s0,0,0,0Z"/>
    <path class="st0" d="M161,50.7c2.5-.1,5.2-.5,4.6.9-3.3,3.4-8.4,3-12.3.9-5.6-3.1-6.3-10.7-11.8-13.6-5-2.6-10.1,2.8-11.9,2.7-1.4-.1.9-2,1.8-2.9,2.8-3,7.5-3.7,11.3-2.5,5.8,1.7,7.9,7.4,10.9,11.8,1.1,1.6,4.8,2.9,7.3,2.8h0Z"/>
    <path class="st0" d="M133.6,27.8c.2,0,.4.2.3.4-.4,1.1-2.2,1.9-4.6,4.6-2.1,2.4-4.9,5.1-4.4,7.9.6,3.8-1,2.9-1.1,2.7-2.6-6.2,2.7-9.5,2.2-10-.7-.6-7.2,4-7.7,10.5-.2,2.3-.9,2.8-1.1,2.1-.9-2.1.2-8.4,2.1-10.8,5-6.3,12.7-7.2,14.4-7.4h0s0,0,0,0Z"/>
    <path class="st0" d="M94.8,79.6c.8.6-2.5,1.2-2.8,1.3-3.2.8-5.7,3.4-7.1,5.8-3.1,5.3.9,9.4-.8,14-1,2.8-2.7,3.8-5.3,4.3-1.3-.9,1.7-2.4,2.4-7.4.3-2.4-.5-5.1-.2-7.5.3-3.9,1.8-7.1,5.1-9.1,2.7-1.6,5.4-1.6,8.8-1.4h0Z"/>
    <path class="st0" d="M145.8,67.5c-1.6-1.2,5.2-1.8,9.1-.4,6.4,2.3,6.4,12.3,9.7,16.8.6.8,2.6,2.4,1.1,3.2-.5.3-1.8,0-2.3-.3-5.5-3.3-4.8-11.7-9-16.4-2.6-2.9-7.2-1.8-8.7-2.9h0,0Z"/>
    <path class="st0" d="M156,174.9c8-4.7,10.1-9.2,11.5-10.3,1.1-.9.2,1.3-.3,2.4-1.3,3-4.2,6.3-7.4,8.7-5.8,4.3-13.1,5.2-12.2,2.9.9-2.1,4.5-1.4,8.4-3.7h0s0,0,0,0Z"/>
  </g>
</svg>