<?xml version="1.0" encoding="UTF-8"?>
<svg id="Layer_1" xmlns="http://www.w3.org/2000/svg" version="1.1" viewBox="0 0 760.3 207.2">
  <!-- Generator: Adobe Illustrator 29.2.1, SVG Export Plug-In . SVG Version: 2.1.0 Build 116)  -->
  <defs>
    <style>
      .st0 {
        fill: #f6dfb8;
      }

      .st1 {
        isolation: isolate;
      }

      .st2 {
        fill: #fff;
      }

      .st3 {
        fill: #333;
      }
    </style>
  </defs>
  <g>
    <g class="st1">
      <g class="st1">
        <g class="st1">
          <g class="st1">
            <path class="st0" d="M303.1,122.2c-.4-11.4-.6-26.9-1.1-38,0-.7,0-1.1-.5-1.1s-.7.3-1,1.2l-16.5,45.6c-.6,1.6-1,2.7-3.4,2.7s-2.7-1-3.4-2.7l-16.6-45.5c-.3-.9-.6-1.3-1-1.3s-.5.5-.5.9c-.3,9.8-1,22.9-1.1,29.7,0,7.7,0,14,0,16.4s-1.2,2.4-3.7,2.4-3.5-.9-3.5-2.3c0-2.6.6-8.8,1-16.6s1.6-29.2,1.6-33-5-4.1-5-6,3.4-3.5,6.9-3.5c7,0,10.9,3.1,14.2,12.6l11.2,29.6c.4,1.2.7,2.5,1.3,2.5s.8-1.3,1.3-2.5l11.1-29.8c3.3-9.5,8.1-12.4,13.8-12.4s6.6,1.9,6.6,3.5-4.7,1.6-4.7,5.9,1.3,33.1,1.6,40.7c.3,7.3,5.3,5.9,5.3,8s-2.8,3.7-5.8,3.7c-4.4,0-8-2.7-8.2-10.6Z"/>
            <path class="st0" d="M326.9,118.4c0-6.2.7-11.4.7-17.9,0-9.4-3.8-7.3-3.8-9.5s3.6-3.5,6.6-3.5,5.7,3.2,5.7,9.9-.7,14.6-.7,20.7,2.8,9.4,7.1,9.4c6.4,0,12.1-6.8,12.1-20.4s-.3-11.6-.3-16.8,1-2.9,4.7-2.9,4.3,1.2,4.3,2.8-.5,14.8-.5,23.8c0,15.4,5.8,12.4,5.8,14.8s-3.8,3.7-6.4,3.7c-6.6,0-5.6-9.3-6.5-9.3s-4.5,9.9-15.8,9.9-12.9-7.5-12.9-14.7Z"/>
            <path class="st0" d="M378.9,139c0-7.5.4-29.9.4-44.9s-.3-1.1-1.4-1.1c-4.2,0-5.2-.2-5.2-2s1.2-1.7,3.6-2.4c2.8-.8,3.3-2.8,3.6-7.8.8-7.9,4.4-14.2,14.5-14.2s12.1,3.8,12.1,5.4-1.7,5.8-3.3,5.8-1.6-.8-2.8-2c-1.1-1.3-3.9-4.6-6.9-4.6s-5.8,2.6-5.8,9.6v6.1c0,.7.3,1.1,1.1,1.1h10.4c1.2,0,1.7.7,1.7,2,0,1.9-.9,3-2.4,3h-9.8c-.8,0-1.1.4-1.1,1.1v24.8c-.2,10.6,0,17.8,0,20.2s-1.2,2.9-4.5,2.9-4.5-1.7-4.5-2.9Z"/>
            <path class="st0" d="M411.5,139c0-7.5.4-29.9.4-44.9s-.3-1.1-1.4-1.1c-4.2,0-5.2-.2-5.2-2s1.2-1.7,3.6-2.4c2.8-.8,3.3-2.8,3.6-7.4.8-8.3,7.2-14.6,17.3-14.6s16.9,5.6,16.9,7.6-1.9,5.9-3.8,5.9-2.5-2-4.1-3.8c-1.6-1.9-4.5-5.1-9.3-5.1s-9.1,3.1-9.1,11.3v4.4c0,.7.4,1.1,1.2,1.1,12,0,16.2-.5,20.2-.5s5.6,3.1,5.6,9.3-.8,16.8-.8,23.5,5.7,6.4,5.7,8.7-2.8,3.8-6.1,3.8-8.1-3.2-8.1-11.1.7-13.8.7-19.8-.7-8.9-3.1-8.9h-14.2c-.8,0-1.1.4-1.1,1.1v24.8c-.2,10.6,0,17.8,0,20.2s-1.2,2.9-4.5,2.9-4.5-1.7-4.5-2.9Z"/>
            <path class="st0" d="M462.1,129.9c0-1.5.9-15.1.9-24,0-15.4-5.8-12.7-5.8-15s4.3-3.6,6.8-3.6c6.6,0,5.6,9.3,6.5,9.3s4.4-9.8,15.7-9.8,12.9,7.5,12.9,14.1-1.3,12.2-1.3,17.7c0,10.5,5.6,8.1,5.6,10.3s-2.8,3.8-5.9,3.8c-4.6,0-8.1-3.5-8.1-12.3s1.2-13.4,1.2-19.2-2.8-8.8-7.1-8.8c-6.5,0-12.5,6.8-12.5,23.2v14.2c0,1.7-1,2.8-4.7,2.8s-4.3-1.1-4.3-2.7Z"/>
            <path class="st0" d="M513.6,130c0-1.6.8-12.1.8-27.7v-19.2c0-7.9-4-6.3-4-8.5s2.2-3.3,11.3-3.3h6.7c17,0,27.4,6.9,27.4,19.4s-9,20.4-31.4,20.4-1.4.4-1.4,1.2v17.8c0,1.5-1.3,2.7-4.6,2.7s-4.9-1.2-4.9-2.7ZM546.6,90.5c0-10.9-8.6-14.5-17.7-14.5s-5.1,0-5.2,0c-1.2,0-1.5.2-1.5,1s.7,2.2.7,5.6v22.5c0,.9.2,1.2,1.5,1.2,16,0,22.2-5.6,22.2-15.8Z"/>
            <path class="st0" d="M565.5,118.4c0-6.2.7-11.4.7-17.9,0-9.4-3.8-7.3-3.8-9.5s3.6-3.5,6.6-3.5,5.7,3.2,5.7,9.9-.7,14.6-.7,20.7,2.8,9.4,7.1,9.4c6.4,0,12.1-6.8,12.1-20.4s-.3-11.6-.3-16.8,1-2.9,4.7-2.9,4.3,1.2,4.3,2.8-.5,14.8-.5,23.8c0,15.4,5.8,12.4,5.8,14.8s-3.8,3.7-6.4,3.7c-6.6,0-5.6-9.3-6.5-9.3s-4.5,9.9-15.8,9.9-12.9-7.5-12.9-14.7Z"/>
            <path class="st0" d="M616,147c0-2.4,1.4-20.8,1.4-40.6s-5.8-13.2-5.8-15.5,3.8-3.7,6.4-3.7c6.6,0,5.5,9.3,6.4,9.3s4.2-9.7,15.1-9.7,16.8,8.6,16.8,23-7.5,23.2-17.9,23.2-12.6-8.1-13.3-8.1-.3.5-.3,1.8c0,3.5.2,17.9.2,20.2s-1,2.8-4.7,2.8-4.3-1.1-4.3-2.7ZM647.5,110.1c0-11-4-17.8-10.4-17.8s-11.5,8.1-11.5,17.7,4,18,11.1,18,10.8-7.4,10.8-17.9Z"/>
            <path class="st0" d="M666.9,147c0-2.4,1.4-20.8,1.4-40.6s-5.8-13.2-5.8-15.5,3.8-3.7,6.4-3.7c6.6,0,5.5,9.3,6.4,9.3s4.2-9.7,15.1-9.7,16.8,8.6,16.8,23-7.5,23.2-17.9,23.2-12.6-8.1-13.3-8.1-.3.5-.3,1.8c0,3.5.2,17.9.2,20.2s-1,2.8-4.7,2.8-4.3-1.1-4.3-2.7ZM698.4,110.1c0-11-4-17.8-10.4-17.8s-11.5,8.1-11.5,17.7,4,18,11.1,18,10.8-7.4,10.8-17.9Z"/>
            <path class="st0" d="M714.8,124.3c0-1.9,1.6-5.7,3.3-5.7,3.1,0,4.3,9.9,15.3,9.9s8.6-2.6,8.6-6.5-2.9-6.3-11.5-9.4c-8.6-3.1-14.5-7-14.5-13.9s6.1-11.9,16.5-11.9,16.5,4.7,16.5,7.1-1.7,5.9-3.3,5.9c-2.7,0-3.4-8.4-13.4-8.4s-8.3,2.1-8.3,5.9,3,5.9,11.9,9.1c8.7,3.1,14.3,7.1,14.3,14.1s-6.1,12.7-17.5,12.7-17.9-6.5-17.9-8.8Z"/>
          </g>
        </g>
      </g>
    </g>
    <g class="st1">
      <g class="st1">
        <g class="st1">
          <g class="st1">
            <path class="st0" d="M260.2,160.3c-.5,0-.9-.1-1.4-.1-1.3,0-2.5.4-3.4,1.1-.9.7-1.6,1.8-2,3.2v13.2h-2.1v-19.3h2.1v3.1c1.2-2.3,3-3.4,5.5-3.4s1.1,0,1.4.2v1.9Z"/>
            <path class="st0" d="M275,177.8c-.2-.6-.4-1.5-.4-2.7-.7,1-1.7,1.7-2.9,2.3-1.2.5-2.4.8-3.7.8-1.9,0-3.4-.5-4.5-1.6-1.1-1-1.7-2.3-1.7-3.9s.8-3.4,2.3-4.5c1.6-1.1,3.7-1.6,6.5-1.6h3.9v-2.2c0-1.4-.4-2.5-1.3-3.3-.8-.8-2.1-1.2-3.7-1.2s-2.7.4-3.7,1.1c-1,.8-1.5,1.7-1.5,2.7h-2.1c0-1.6.7-2.9,2.1-4s3.2-1.7,5.3-1.7,3.8.5,5.1,1.6,1.9,2.6,1.9,4.5v9.1c0,1.9.2,3.3.6,4.2v.2h-2.3ZM268.3,176.3c1.4,0,2.7-.3,3.8-1,1.1-.7,1.9-1.6,2.5-2.8v-4.2h-3.8c-2.1,0-3.8.4-5,1.2-1.2.8-1.8,1.8-1.8,3.1s.4,2,1.2,2.7c.8.7,1.8,1.1,3.1,1.1Z"/>
            <path class="st0" d="M282.3,152.9c0-.4.1-.7.4-1,.3-.3.6-.4,1.1-.4s.8.1,1.1.4c.3.3.4.6.4,1s-.1.7-.4,1c-.3.3-.6.4-1.1.4s-.8-.1-1.1-.4c-.3-.3-.4-.6-.4-1ZM284.8,177.8h-2.1v-19.3h2.1v19.3Z"/>
            <path class="st0" d="M302.1,172.9c0-1.1-.4-1.9-1.3-2.5-.8-.6-2.1-1.1-3.8-1.5-1.7-.4-3-.8-4-1.2-.9-.5-1.6-1-2.1-1.7-.5-.7-.7-1.5-.7-2.5,0-1.5.6-2.8,1.9-3.8,1.3-1,2.9-1.5,4.9-1.5s3.9.5,5.2,1.6c1.3,1.1,2,2.5,2,4.2h-2.1c0-1.1-.5-2.1-1.4-2.8-.9-.7-2.1-1.1-3.6-1.1s-2.5.3-3.4.9-1.3,1.4-1.3,2.4.4,1.7,1.1,2.2c.7.5,2,1,3.9,1.5,1.9.4,3.3.9,4.2,1.4.9.5,1.6,1.1,2.1,1.8.5.7.7,1.6.7,2.5,0,1.6-.7,2.9-2,3.9-1.3,1-3,1.5-5.1,1.5s-4.1-.5-5.5-1.6-2.1-2.5-2.1-4.1h2.1c0,1.2.6,2.2,1.6,2.9,1,.7,2.2,1,3.8,1s2.7-.3,3.6-1c.9-.7,1.4-1.5,1.4-2.5Z"/>
            <path class="st0" d="M316.5,178.2c-1.6,0-3.1-.4-4.4-1.2-1.3-.8-2.4-1.9-3.1-3.4-.7-1.4-1.1-3.1-1.1-4.9v-.8c0-1.9.4-3.5,1.1-5s1.7-2.7,3-3.5c1.3-.8,2.7-1.3,4.2-1.3,2.3,0,4.2.8,5.6,2.4,1.4,1.6,2.1,3.8,2.1,6.5v1.2h-13.8v.4c0,2.2.6,4,1.9,5.5,1.3,1.5,2.8,2.2,4.7,2.2s2.1-.2,3-.6c.9-.4,1.7-1.1,2.4-2l1.3,1c-1.6,2.3-3.8,3.4-6.8,3.4ZM316.1,160c-1.6,0-3,.6-4.1,1.8-1.1,1.2-1.8,2.8-2,4.7h11.6v-.2c0-1.9-.6-3.4-1.6-4.5-1-1.2-2.3-1.7-3.9-1.7Z"/>
            <path class="st0" d="M327.1,168c0-3,.7-5.4,2-7.2,1.3-1.8,3.2-2.7,5.4-2.7s4.6,1,6,3.1v-10.8h2.1v27.4h-2v-2.6c-1.5,1.9-3.5,2.9-6.1,2.9s-4-.9-5.4-2.7c-1.4-1.8-2-4.2-2-7.2v-.2ZM329.2,168.4c0,2.5.5,4.4,1.5,5.8,1,1.4,2.4,2.1,4.2,2.1,2.6,0,4.5-1.2,5.6-3.5v-9.1c-1.1-2.5-3-3.8-5.6-3.8s-3.2.7-4.2,2.1-1.5,3.5-1.5,6.2Z"/>
            <path class="st0" d="M361.7,173.4l.3,1.7.4-1.7,4.6-14.8h1.8l4.6,14.6.5,2,.4-1.9,4-14.8h2.2l-5.6,19.3h-1.8l-5-15.3-.2-1.1-.2,1.1-4.9,15.3h-1.8l-5.6-19.3h2.2l4.1,14.8Z"/>
            <path class="st0" d="M384.5,152.9c0-.4.1-.7.4-1,.3-.3.6-.4,1.1-.4s.8.1,1.1.4.4.6.4,1-.1.7-.4,1-.6.4-1.1.4-.8-.1-1.1-.4c-.3-.3-.4-.6-.4-1ZM387,177.8h-2.1v-19.3h2.1v19.3Z"/>
            <path class="st0" d="M396.1,153.6v4.9h4v1.7h-4v12.9c0,1.1.2,1.9.6,2.4.4.5,1,.8,1.9.8s.9,0,1.7-.2v1.7c-.5.2-1.2.3-2.2.3-1.5,0-2.5-.4-3.2-1.3-.7-.8-1-2.1-1-3.8v-12.9h-3.5v-1.7h3.5v-4.9h2.1Z"/>
            <path class="st0" d="M406.6,161.8c.7-1.2,1.6-2,2.7-2.7,1.1-.6,2.3-.9,3.6-.9,2.1,0,3.6.6,4.6,1.7,1,1.2,1.5,2.9,1.5,5.2v12.7h-2.1v-12.7c0-1.7-.4-3-1.1-3.8-.7-.8-1.9-1.3-3.4-1.3s-2.5.4-3.5,1.2-1.8,1.9-2.3,3.3v13.2h-2.1v-27.4h2.1v11.4Z"/>
            <path class="st0" d="M435.8,177.8h-2.1v-27.4h2.1v27.4Z"/>
            <path class="st0" d="M440.4,167.9c0-1.9.4-3.5,1.1-5,.7-1.5,1.7-2.6,3-3.5,1.3-.8,2.8-1.2,4.5-1.2,2.6,0,4.6.9,6.2,2.7,1.6,1.8,2.4,4.2,2.4,7.2v.4c0,1.9-.4,3.5-1.1,5-.7,1.5-1.7,2.6-3,3.4-1.3.8-2.8,1.2-4.5,1.2-2.6,0-4.6-.9-6.2-2.7-1.6-1.8-2.4-4.2-2.4-7.2v-.4ZM442.5,168.5c0,2.3.6,4.2,1.8,5.7,1.2,1.5,2.8,2.2,4.7,2.2s3.5-.7,4.7-2.2c1.2-1.5,1.8-3.4,1.8-5.9v-.4c0-1.5-.3-2.8-.8-4s-1.3-2.2-2.3-2.8c-1-.7-2.1-1-3.4-1-1.9,0-3.5.7-4.7,2.2-1.2,1.5-1.8,3.4-1.8,5.9v.4Z"/>
            <path class="st0" d="M467.8,174.9l5.9-16.3h2.2l-7.2,19.3h-1.7l-7.2-19.3h2.2l5.9,16.3Z"/>
            <path class="st0" d="M486.8,178.2c-1.6,0-3.1-.4-4.4-1.2-1.3-.8-2.4-1.9-3.1-3.4-.7-1.4-1.1-3.1-1.1-4.9v-.8c0-1.9.4-3.5,1.1-5s1.7-2.7,3-3.5c1.3-.8,2.7-1.3,4.2-1.3,2.3,0,4.2.8,5.6,2.4,1.4,1.6,2.1,3.8,2.1,6.5v1.2h-13.8v.4c0,2.2.6,4,1.9,5.5,1.3,1.5,2.8,2.2,4.7,2.2s2.1-.2,3-.6c.9-.4,1.7-1.1,2.4-2l1.3,1c-1.6,2.3-3.8,3.4-6.8,3.4ZM486.4,160c-1.6,0-3,.6-4.1,1.8-1.1,1.2-1.8,2.8-2,4.7h11.6v-.2c0-1.9-.6-3.4-1.6-4.5-1-1.2-2.3-1.7-3.9-1.7Z"/>
          </g>
        </g>
      </g>
    </g>
  </g>
  <g>
    <path class="st0" d="M100.4,201.9c-26.3-3.2-68.7-13.8-84.9-46.2C.7,125.9-1.7,96.5,23.1,69.8c11.7-12.7,30.8-16,40.2-31.6C86.1.5,140-8.4,173.4,17.9c18.2,14.3,64.3,66.2,41.8,148.8-10,36.5-59.3,41.9-114.7,35.1h0Z"/>
    <g>
      <path class="st2" d="M126.8,131.9c.6,3.2,7,4.7,10.9,5,2.9.2,6.4.4,8.3-1.9,1-1.3,1.6-3.4.8-5-.8-1.5-2.4-1.9-4.6-2.4-2.6-.6-5.3-.3-10.6.4-2.1.3-3.7.6-4.4,1.8-.6,1-.4,2.1-.4,2.2h0Z"/>
      <path class="st2" d="M153.7,97.4c-.5,1.5-1.3,4.1-.1,6.7.4.8,1.3,2.8,3.3,3.4,2.5.7,5.5-.8,6.4-3.2,1-2.6-1-5-2.4-6.9-.6-.7-3.2-4-5.2-3.3-1,.4-1.4,1.5-1.9,3.2h-.1Z"/>
      <path class="st2" d="M99.3,103c.4-2.7,2.8-5.3,5.6-5.1,3.1.2,5.4,3.7,4.7,6.9-.7,3.1-4.1,5.2-7,4.2-2.4-.8-3.6-3.6-3.3-6h0Z"/>
      <g>
        <path class="st3" d="M54,80.4c-10.6,9.7-12-4.3-12-4.3-3.3,8.6,3.4,12.3,5.6,13.7.5.3.6.9.4,1.3-.6,1.3-8.6,4.2-6.6,15.9.9,4.9,3.3,6.4,3.4,9.4,0,3.3-2.4,6.7-3.6,9.2-3,6.4,2.4,27.9,12.6,47.2.8,1.6,2.4,1.1,2.9.7.8-.8,1.1-2,1.6-3.3,2.2-5.8,3.2-17,1.7-23-.3-1.3-1.9-4.9-.3-4,2.8,2.1,4.7,3.9,5.3,7.5,1.1,7.2.3,20.3-4.2,26.3-2.9,3.8-6.5,2.7-9.2-.7-3.7-4.6-13.4-28.7-16.1-46.6-.7-4.9,3.6-8.2,4.8-12.2.7-2.3-4.3-8.2-3-16.6.6-3.9,2.7-7,5.6-9.8-4.1-2.6-6.7-6.6-5.9-11.6.6-3.7,3.5-6.1,4.4-9.5,0,0,0-2.8.7-2.5,3.3,1.5,2.6,8.3,3.7,10.1,2,3.3,5.1,2.2,8.1,2.2s.5.4.2.7h-.1Z"/>
        <path class="st3" d="M200.4,159.8c-1.8,1-4.6-1-5.3-3-2.3-6.3,2.1-.2,2.9-.7,1.3.2-1.6-4,2.3-7.9,1.3-1.3,3.3-3.2,4.2-4.9,5.7-11.6,5.7-23.2-4.2-33.6-5-5.2-2.3-16.2-4.2-23.6-1.6-6-11.2-9.3-11.2-9.3.4-.6,1.8-.6,2.7-.6s4.8.6,6.5,1.6c9.4,5.8,6.4,16.6,8.4,26,1.1,5.1,7.7,10.7,8.8,16.3,1.6,8,0,13.8-1,17.7-1.7,6.5-5.4,11-8.2,13.4-1.8,1.5.3,7.5-1.7,8.6h0Z"/>
        <path class="st3" d="M140.5,155.9"/>
        <path class="st3" d="M140.9,152.6c.7-1.5,5.3,5.5,6.2,6.9,5.2,8,9.2,13.1,16.1,11.1,2.6-.7,6.7-8.5,6.2-5.5-.3,1.7-3,7.1-5.8,8.2s-5.2,1.4-7.9.5c-2.5-.9-4.7-2.4-6.8-4,3.3,12.7-5.2,21.2-5.3,21.4-3.3,2.7-7.4,1.9-9.2.2-3.6-3.5-4-7.6-5.7-12.1-.6-1.6-2.9-5.3-2.9-7.3.9-.9,3.3,3.4,3.7,4,1.2,2.1,5.4,11.2,9.5,11.6,4.4.4,6.1-4,6.5-4.9,1.6-3.6,2.3-6.4,2.1-10.2-.2-4.4-2.1-9.2-4.3-13.7l-1-2.2"/>
        <path class="st3" d="M140.5,155.9"/>
        <path class="st3" d="M136.9,150.9c5.1,9.7,4.3,16,4.1,18.1-.2,2.7.7,8.3-1.9,8-1.3-.2-1.2-6.9-.9-9.8.3-4,0-8-.9-11.9-.6-2.8-1.1-4.1-.3-4.3"/>
        <path class="st3" d="M141.2,143.7c-.9.9-1.5,2.3-2.5,2.6-4.2,1.1-5.5-2-7.9-4.5-.8-.8-3.9-3.4-5.7-4.6-5.2-3.2-3.1-8.5,2-10,2.6-.8,13.1-1.4,16-1.4s2.7.4,4.1,1.2c1.4.8,1.7,3.1,1.7,3.7,0,2.3-2,5.4-2.5,6.3-2,3.2-2.9,4.5-5.1,6.8h-.1ZM129.8,131.1c0,1.4,3.5,1.7,4.9,1.8,1.9.2,6.4-.1,8.1-.9.9-.4,2-.9,2-2s-1.7-.6-2.7-.4c-1.3.2-2.4.2-3.4.3-2.9,0-9,0-8.9,1.3h0Z"/>
        <path class="st3" d="M116.2,36.8c-2.9,1.4-6.2,0-9.4.4-6.1.7-11.2,5.3-15.1,9.6-.9,1-4.2,5.5-6.3,5.9-5.2,1-10,1-14.3,4.8-5.4,4.8-8.7,9.8-8.3,17.3,0,.8-.2,3.5-.5,3.9-.5.9-.4,2.2-2.2,2.2s-2.1-10-1.9-11.2c1.3-5.4,4.1-10.2,8.4-13.7,4.8-3.8,10.9-4.7,16.7-5.8,2.1-3.3,4.4-6.6,7.2-9.4,4.6-4.5,16-7.8,22.2-6.3.9.2,4.1,1.1,3.4,2.3h.1Z"/>
        <path class="st3" d="M165,61.1c-2.9-1.3-7.3-1.8-12,0-1.1.4-3.4,1.4-3.5.8,1.8-4.3,10.5-4.3,14.5-3.9,12.8,1.4,18,20.8,18.7,22.9,2.1,6.8-2.1,11.8,2.8,20.3.6,1.1,2.7,5.4,2.8,5.7q0,.5-.5.5c-4.9-3.2-9.8-10-9.1-16.2,1.4-12.1-4.7-26-13.8-30.1h.1Z"/>
        <path class="st3" d="M109.1,110.6c-2.6,1.6-4.6,2.6-7.8,2.2-1.8-.2-3.4-2.6-4.5-1.2-6.7,8.5-10.4,6.7-9.8,6,6.5-7.9,6.3-11.3,6.8-13,.9-3,2.8-7.9,8.4-9.1,3.5-.8,7.5,1.6,9.2,4.5,1.4,2.4,2.3,4.5.8,7.1-.6,1.1-2.1,2.9-3,3.5h0ZM102.7,105.5c.5.6,2.1.8,2.6,0,1-1.3,1.9-3.6.5-4.4-.5-.3-1.9.2-2.3.6-1.2,1.1-2,2.2-.7,3.7h0Z"/>
        <path class="st3" d="M166.6,101.9c.8,1,3.2,4.1,4.4,5,.9.7,2.1,1,3.1,1.6-2.8,3.7-7.2,0-8.8-2.2-.3,0-4,2.4-4.7,2.8-2.3,1.4-4.2,1.6-5.9.9-1.1-.5-3.8-2.8-4.6-4.2-2-3.8-.6-10,3.2-12,1.6-.9,4.2-.4,5.8.5,4.3,2.5,4.4,3.8,7.4,7.6h.1ZM157.1,100.1c-1.5,1.5-.9,4.9,1.6,4,1.9-.7-.1-5.5-1.6-4Z"/>
        <path class="st3" d="M71.4,141.7c2.6,5.5,5.5,12.8,8.2,18.3,6.1,12.1,13,16,18.2,18.3,4.3,1.9,21.6,5.8,19.1,7.4-1.1.7-13.4,2.2-27.5-6.4-10.9-6.6-15.8-21.2-19.8-33.1-.6-1.9-2.2-7.9-2.1-8.3.3-1,2.7,1.4,3.8,3.8h0Z"/>
        <path class="st3" d="M184.5,123.9c.9.4,2.7,3.5,3.5,7.7,1.3,6.3.9,9.6.9,12.6,0,6.2-2.2,12.4-6.1,16.5-5.7,6-7.2,4.9-8.3,5.4-.9-.9,4.6-7.4,5.3-8.6,4.7-7.6,6.4-18.6,4.5-27.3-.5-2-2.5-7.6.2-6.3h0Z"/>
        <path class="st3" d="M65.3,113.6c-.6-.8,4.3-4.6,5-5.8,4.8-8.6-3.3-21,3.7-32.8,2.1-3.6,7.6-6.7,8.3-5.1.2.4-6.2,1.8-8,13-1.1,7.3,3.1,20.4-.6,26.2-3.3,5.2-8.5,4.6-8.5,4.6h0Z"/>
        <path class="st3" d="M133.9,152.3c.3.3-.1.6-.9,1.5-1.9,2.4-2.1,5-3.3,7.7-1.6,3.8-1.9,4.9-4.6,8.2-4.6,5.4-10.2,7.4-17.5,6.8-3.2-.3-8.5-1.3-9.7-3.2-.4-.6,0-.6.4-.7,1.4-.4,4.1-.5,5.6-.5s7.1.4,8.3.2c5.9-.6,10-5,13.7-9.7,2.2-2.7,3.4-6.6,5.8-9.2.4-.5,1.5-1.9,2.2-1.1h0Z"/>
        <path class="st3" d="M166.3,52.1c2.6,0,5.3-.5,4.8,1-3.4,3.5-8.7,3.1-12.7.9-5.8-3.2-6.5-11.1-12.2-14-5.2-2.7-10.5,2.9-12.3,2.7-1.5,0,1-2,1.9-3,2.9-3.1,7.7-3.8,11.7-2.6,6,1.8,8.1,7.6,11.3,12.2,1.1,1.6,5,3,7.5,2.9h0Z"/>
        <path class="st3" d="M137.9,28.4c.2,0,.4.2.4.4-.5,1.1-2.3,1.9-4.8,4.7-2.2,2.5-5.1,5.2-4.6,8.2.6,3.9-1,3-1.1,2.8-2.7-6.5,2.8-9.9,2.3-10.3-.7-.6-7.4,4.1-8,10.9-.2,2.4-.9,2.9-1.2,2.2-.9-2.2.2-8.7,2.1-11.2,5.2-6.6,13.1-7.4,14.9-7.6h0Z"/>
        <path class="st3" d="M97.8,82c.9.7-2.5,1.2-2.9,1.3-3.4.9-5.9,3.5-7.4,6.1-3.2,5.5.9,9.7-.8,14.4-1.1,2.9-2.8,3.9-5.5,4.4-1.3-1,1.7-2.5,2.5-7.7.4-2.5-.5-5.3-.3-7.8.4-4,1.9-7.4,5.3-9.4,2.8-1.7,5.6-1.7,9.1-1.4h0Z"/>
        <path class="st3" d="M150.5,69.5c-1.7-1.3,5.4-1.9,9.4-.5,6.6,2.3,6.6,12.8,10.1,17.4.6.8,2.7,2.4,1.2,3.4-.5.3-1.8,0-2.3-.3-5.7-3.4-4.9-12.1-9.3-17-2.7-3-7.5-1.9-9-3h0Z"/>
        <path class="st3" d="M161,180.7c8.3-4.9,10.5-9.5,11.9-10.7,1.1-1,.2,1.4-.3,2.5-1.4,3.1-4.3,6.5-7.6,9-6,4.5-13.6,5.4-12.6,3,.9-2.1,4.7-1.4,8.7-3.8h0Z"/>
      </g>
    </g>
  </g>
</svg>