<?xml version="1.0" encoding="UTF-8"?>
<svg id="Layer_1" data-name="Layer 1" xmlns="http://www.w3.org/2000/svg" viewBox="0 0 749.82 201.57">
  <defs>
    <style>
      .cls-1 {
        fill: #f7e0ba;
      }

      .cls-2 {
        font-family: Sirenia-Light, Sirenia;
        font-size: 99.43px;
      }

      .cls-2, .cls-3, .cls-4 {
        isolation: isolate;
      }

      .cls-2, .cls-4 {
        font-weight: 300;
      }

      .cls-2, .cls-5 {
        fill: #333;
      }

      .cls-4 {
        fill: #231f20;
        font-family: Roboto-Light, Roboto;
        font-size: 36.49px;
      }

      .cls-6 {
        fill: #fff;
      }

      .cls-7 {
        letter-spacing: -.02em;
      }

      .cls-8 {
        letter-spacing: 0em;
      }
    </style>
  </defs>
  <g>
    <g class="cls-3">
      <g class="cls-3">
        <text class="cls-2" transform="translate(239.34 129.44)"><tspan x="0" y="0">MuffinPupps</tspan></text>
      </g>
    </g>
    <g class="cls-3">
      <g class="cls-3">
        <text class="cls-4" transform="translate(244.11 174.99)"><tspan class="cls-7" x="0" y="0">r</tspan><tspan x="11.56" y="0">aised with l</tspan><tspan class="cls-8" x="190.25" y="0">o</tspan><tspan x="210.42" y="0">ve</tspan></text>
      </g>
    </g>
  </g>
  <g>
    <path class="cls-1" d="M96.03,199.06c-26.27-3.2-68.7-13.8-84.9-46.24-14.84-29.75-17.2-59.12,7.56-85.83,11.73-12.65,30.75-15.96,40.22-31.62C81.68-2.29,135.62-11.23,169.01,15.11c18.18,14.34,64.33,66.25,41.75,148.81-9.98,36.46-59.26,41.91-114.75,35.15h0Z"/>
    <g>
      <path class="cls-6" d="M122.34,129.09c.63,3.23,7.04,4.71,10.94,4.96,2.92.19,6.42.43,8.27-1.9,1.02-1.28,1.58-3.37.76-4.96-.75-1.47-2.38-1.88-4.57-2.42-2.59-.63-5.29-.3-10.56.38-2.13.28-3.7.55-4.45,1.78-.6.98-.4,2.08-.38,2.17h-.01Z"/>
      <path class="cls-6" d="M149.31,94.62c-.5,1.53-1.32,4.07-.13,6.74.36.8,1.25,2.82,3.31,3.43,2.46.74,5.45-.84,6.37-3.18,1-2.59-.95-5.04-2.42-6.87-.55-.7-3.21-4.02-5.21-3.31-.99.35-1.38,1.54-1.9,3.18h-.01Z"/>
      <path class="cls-6" d="M94.86,100.22c.35-2.73,2.78-5.29,5.6-5.09,3.11.23,5.43,3.71,4.71,6.87-.7,3.07-4.14,5.2-6.99,4.2-2.41-.84-3.61-3.62-3.31-5.98h-.01Z"/>
      <g>
        <path class="cls-5" d="M49.55,77.56c-10.58,9.74-12.04-4.32-12.04-4.32-3.32,8.6,3.43,12.32,5.59,13.68.45.29.6.85.39,1.33-.58,1.3-8.63,4.22-6.59,15.85.86,4.91,3.28,6.44,3.36,9.44.09,3.28-2.44,6.65-3.65,9.24-2.98,6.39,2.41,27.89,12.64,47.16.83,1.55,2.44,1.08,2.87.69.84-.75,1.05-1.95,1.57-3.26,2.23-5.75,3.18-17.04,1.7-23.01-.33-1.34-1.87-4.87-.34-3.96,2.78,2.09,4.74,3.88,5.31,7.47,1.14,7.16.26,20.3-4.21,26.25-2.88,3.83-6.49,2.68-9.19-.66-3.72-4.61-13.42-28.68-16.08-46.64-.73-4.9,3.65-8.18,4.85-12.23.68-2.27-4.32-8.16-2.97-16.58.64-3.93,2.74-7.02,5.61-9.79-4.07-2.64-6.69-6.55-5.88-11.62.59-3.7,3.46-6.13,4.39-9.49,0,0,.08-2.77.66-2.49,3.27,1.52,2.63,8.3,3.7,10.05,2.04,3.35,5.1,2.16,8.08,2.23.33,0,.46.44.23.65h-.01Z"/>
        <path class="cls-5" d="M195.99,156.96c-1.82,1.04-4.57-1-5.28-2.98-2.26-6.27,2.08-.2,2.92-.74,1.34.21-1.55-3.96,2.33-7.94,1.29-1.33,3.35-3.22,4.19-4.95,5.65-11.64,5.66-23.25-4.25-33.56-5.03-5.23-2.34-16.22-4.25-23.57-1.55-6-11.17-9.31-11.17-9.31.36-.64,1.8-.63,2.67-.64,1.15-.03,4.77.55,6.49,1.63,9.39,5.84,6.39,16.59,8.4,26.04,1.09,5.11,7.72,10.74,8.8,16.29,1.57,8.03,0,13.85-1,17.74-1.65,6.54-5.44,11.04-8.17,13.37-1.8,1.54.33,7.47-1.68,8.62h0Z"/>
        <path class="cls-5" d="M136.44,149.81c.65-1.48,5.31,5.48,6.23,6.88,5.2,7.99,9.16,13.07,16.14,11.09,2.62-.74,6.67-8.47,6.2-5.48-.26,1.73-3.02,7.09-5.75,8.21s-5.23,1.42-7.92.48c-2.49-.88-4.7-2.41-6.79-3.98,3.28,12.66-5.16,21.22-5.34,21.37-3.28,2.71-7.37,1.94-9.21.2-3.65-3.46-4.04-7.57-5.73-12.06-.6-1.58-2.86-5.3-2.86-7.33.93-.91,3.33,3.36,3.68,3.97,1.22,2.13,5.43,11.24,9.54,11.59,4.42.39,6.12-4,6.53-4.91,1.63-3.56,2.28-6.37,2.14-10.2-.16-4.41-2.13-9.24-4.32-13.75l-.96-2.23"/>
        <path class="cls-5" d="M132.52,148.14c5.06,9.72,4.26,16.02,4.07,18.13-.24,2.68.68,8.31-1.9,7.96-1.27-.18-1.18-6.9-.94-9.85.33-4-.06-8.03-.89-11.92-.6-2.83-1.09-4.15-.34-4.34"/>
        <path class="cls-5" d="M136.82,140.92c-.86.94-1.48,2.32-2.54,2.61-4.16,1.12-5.45-2.03-7.89-4.47-.84-.84-3.9-3.43-5.74-4.57-5.24-3.25-3.13-8.48,2.04-10.04,2.58-.78,13.1-1.4,16.04-1.42,1.94,0,2.69.41,4.06,1.18,1.38.76,1.67,3.15,1.67,3.68,0,2.29-1.95,5.35-2.52,6.25-2.04,3.22-2.94,4.46-5.1,6.78h-.01ZM125.44,128.29c.06,1.44,3.51,1.69,4.87,1.84,1.93.2,6.37-.14,8.1-.9.93-.4,1.98-.93,2.03-2.03.04-.88-1.69-.55-2.72-.43-1.33.16-2.38.24-3.38.28-2.93.09-8.96,0-8.91,1.25h.01Z"/>
        <path class="cls-5" d="M111.81,34.04c-2.86,1.37-6.17.05-9.45.39-6.12.65-11.17,5.25-15.05,9.65-.86.98-4.19,5.45-6.32,5.86-5.18,1.02-10.04,1-14.3,4.76-5.44,4.8-8.68,9.77-8.28,17.33.04.78-.2,3.5-.45,3.93-.51.89-.36,2.23-2.23,2.16-2.18-.08-2.14-10.01-1.85-11.24,1.27-5.39,4.07-10.23,8.45-13.73,4.76-3.82,10.86-4.7,16.72-5.79,2.12-3.32,4.36-6.62,7.18-9.39,4.57-4.5,16.03-7.76,22.21-6.25.9.21,4.06,1.12,3.38,2.31h0Z"/>
        <path class="cls-5" d="M160.58,58.3c-2.92-1.33-7.26-1.79-11.95-.08-1.05.39-3.4,1.43-3.51.83,1.82-4.31,10.48-4.35,14.54-3.9,12.83,1.44,18.03,20.79,18.67,22.88,2.06,6.83-2.06,11.83,2.81,20.34.6,1.07,2.71,5.35,2.77,5.68.08.49,0,.54-.48.48-4.9-3.23-9.79-10.04-9.06-16.15,1.43-12.08-4.66-25.95-13.77-30.09h-.01Z"/>
        <path class="cls-5" d="M104.66,107.79c-2.58,1.64-4.59,2.56-7.78,2.17-1.79-.21-3.45-2.59-4.55-1.2-6.7,8.48-10.41,6.69-9.85,6.02,6.54-7.93,6.29-11.28,6.8-12.98.9-2.96,2.76-7.89,8.36-9.14,3.5-.78,7.54,1.58,9.22,4.51,1.38,2.42,2.26,4.46.84,7.11-.56,1.05-2.07,2.91-3.02,3.51h-.03,0ZM98.3,102.75c.51.6,2.11.76,2.61.06.95-1.32,1.87-3.6.45-4.39-.53-.3-1.9.23-2.34.64-1.19,1.14-1.97,2.23-.73,3.67h.01Z"/>
        <path class="cls-5" d="M162.16,99.11c.8,1.04,3.25,4.14,4.37,5.01.94.73,2.11,1.02,3.15,1.55-2.79,3.72-7.19-.11-8.78-2.18-.26-.06-3.97,2.43-4.66,2.83-2.34,1.35-4.25,1.59-5.89.86-1.12-.49-3.83-2.84-4.56-4.21-2.01-3.77-.61-9.96,3.23-11.98,1.62-.85,4.24-.41,5.76.49,4.26,2.52,4.44,3.83,7.37,7.62h.01ZM152.67,97.3c-1.53,1.52-.86,4.9,1.63,3.97,1.87-.69-.13-5.48-1.63-3.97Z"/>
        <path class="cls-5" d="M66.96,138.96c2.57,5.53,5.49,12.81,8.22,18.28,6.05,12.12,12.98,15.96,18.22,18.32,4.27,1.93,21.6,5.81,19.12,7.38-1.07.66-13.42,2.19-27.48-6.38-10.9-6.64-15.78-21.22-19.79-33.06-.64-1.88-2.17-7.88-2.06-8.3.28-.96,2.66,1.38,3.77,3.77v-.03h-.01Z"/>
        <path class="cls-5" d="M180.13,121.06c.86.43,2.66,3.55,3.53,7.69,1.33,6.29.9,9.64.86,12.56-.08,6.19-2.19,12.41-6.14,16.54-5.74,6.02-7.19,4.86-8.27,5.38-.85-.85,4.6-7.41,5.33-8.58,4.71-7.61,6.38-18.58,4.47-27.31-.45-2.04-2.53-7.62.2-6.3v.03h.01Z"/>
        <path class="cls-5" d="M60.85,110.85c-.58-.84,4.27-4.61,4.97-5.84,4.81-8.58-3.28-21.02,3.72-32.79,2.13-3.58,7.57-6.72,8.35-5.1.2.41-6.2,1.79-7.96,13.02-1.14,7.29,3.08,20.35-.59,26.17-3.31,5.24-8.5,4.56-8.5,4.56h0Z"/>
        <path class="cls-5" d="M129.5,149.54c.29.34-.14.56-.85,1.48-1.85,2.37-2.13,4.97-3.26,7.67-1.62,3.83-1.87,4.92-4.62,8.18-4.56,5.4-10.18,7.38-17.46,6.78-3.17-.26-8.53-1.27-9.74-3.2-.38-.61,0-.58.4-.7,1.39-.44,4.12-.45,5.55-.45,1.22,0,7.14.35,8.28.24,5.94-.64,9.97-5.01,13.75-9.71,2.17-2.71,3.38-6.55,5.79-9.21.43-.46,1.52-1.87,2.18-1.1l-.03.03h0Z"/>
        <path class="cls-5" d="M161.88,49.28c2.63-.11,5.34-.5,4.8.98-3.37,3.48-8.71,3.1-12.69.9-5.79-3.2-6.52-11.08-12.21-14.05-5.2-2.71-10.45,2.92-12.28,2.74-1.48-.14.95-2.04,1.9-3.02,2.93-3.06,7.72-3.82,11.72-2.62,6.02,1.79,8.13,7.64,11.25,12.18,1.12,1.63,4.97,2.99,7.51,2.88Z"/>
        <path class="cls-5" d="M133.47,25.65c.24-.03.44.21.35.43-.45,1.1-2.28,1.94-4.79,4.74-2.22,2.47-5.05,5.24-4.6,8.18.6,3.88-1.02,3.01-1.12,2.76-2.66-6.45,2.84-9.86,2.26-10.33-.73-.59-7.43,4.11-7.99,10.89-.2,2.36-.89,2.91-1.18,2.21-.89-2.21.16-8.72,2.14-11.22,5.19-6.57,13.13-7.44,14.94-7.64h-.01Z"/>
        <path class="cls-5" d="M93.35,79.23c.86.66-2.54,1.24-2.88,1.33-3.36.88-5.89,3.52-7.38,6.05-3.23,5.51.93,9.75-.81,14.45-1.05,2.86-2.84,3.88-5.48,4.41-1.3-.98,1.73-2.53,2.48-7.68.36-2.47-.48-5.26-.25-7.76.36-4,1.87-7.37,5.28-9.41,2.82-1.69,5.6-1.69,9.06-1.4h-.01Z"/>
        <path class="cls-5" d="M146.07,66.72c-1.7-1.28,5.35-1.88,9.37-.46,6.64,2.33,6.64,12.77,10.08,17.42.59.79,2.67,2.44,1.18,3.36-.5.31-1.83-.01-2.33-.31-5.74-3.41-4.92-12.09-9.27-16.98-2.66-2.98-7.48-1.87-9.01-3.02h-.01Z"/>
        <path class="cls-5" d="M156.6,177.92c8.26-4.9,10.46-9.49,11.85-10.66,1.13-.95.16,1.39-.3,2.46-1.37,3.11-4.34,6.53-7.62,9-5.98,4.5-13.58,5.36-12.61,2.99.89-2.13,4.66-1.42,8.68-3.8h-.01Z"/>
      </g>
    </g>
  </g>
</svg>