<?xml version="1.0" encoding="UTF-8"?>
<svg id="Layer_1" xmlns="http://www.w3.org/2000/svg" version="1.1" viewBox="0 0 780.2 207.2">
  <!-- Generator: Adobe Illustrator 29.2.1, SVG Export Plug-In . SVG Version: 2.1.0 Build 116)  -->
  <defs>
    <style>
      .st0 {
        fill: #f6dfb8;
      }

      .st1 {
        isolation: isolate;
      }

      .st2 {
        fill: #fff;
      }

      .st2, .st3 {
        stroke: #333;
        stroke-linecap: round;
        stroke-linejoin: round;
      }

      .st3 {
        fill: #333;
      }
    </style>
  </defs>
  <g>
    <path class="st0" d="M102.1,201.9c-26.3-3.2-68.7-13.8-84.9-46.2C2.4,125.9,0,96.5,24.8,69.8c11.7-12.7,30.8-16,40.2-31.6C87.8.5,141.7-8.4,175.1,17.9c18.2,14.3,64.3,66.2,41.8,148.8-10,36.5-59.3,41.9-114.7,35.1h-.1Z"/>
    <g>
      <path class="st2" d="M128.5,131.9c.6,3.2,7,4.7,10.9,5,2.9.2,6.4.4,8.3-1.9,1-1.3,1.6-3.4.8-5-.8-1.5-2.4-1.9-4.6-2.4-2.6-.6-5.3-.3-10.6.4-2.1.3-3.7.6-4.4,1.8-.6,1-.4,2.1-.4,2.2h0Z"/>
      <path class="st2" d="M155.4,97.4c-.5,1.5-1.3,4.1-.1,6.7.4.8,1.3,2.8,3.3,3.4,2.5.7,5.5-.8,6.4-3.2,1-2.6-1-5-2.4-6.9-.6-.7-3.2-4-5.2-3.3-1,.4-1.4,1.5-1.9,3.2h-.1Z"/>
      <path class="st2" d="M101,103c.4-2.7,2.8-5.3,5.6-5.1,3.1.2,5.4,3.7,4.7,6.9-.7,3.1-4.1,5.2-7,4.2-2.4-.8-3.6-3.6-3.3-6h0Z"/>
      <g>
        <path class="st3" d="M55.7,80.4c-10.6,9.7-12-4.3-12-4.3-3.3,8.6,3.4,12.3,5.6,13.7.5.3.6.9.4,1.3-.6,1.3-8.6,4.2-6.6,15.9.9,4.9,3.3,6.4,3.4,9.4,0,3.3-2.4,6.7-3.6,9.2-3,6.4,2.4,27.9,12.6,47.2.8,1.6,2.4,1.1,2.9.7.8-.8,1.1-2,1.6-3.3,2.2-5.8,3.2-17,1.7-23-.3-1.3-1.9-4.9-.3-4,2.8,2.1,4.7,3.9,5.3,7.5,1.1,7.2.3,20.3-4.2,26.3-2.9,3.8-6.5,2.7-9.2-.7-3.7-4.6-13.4-28.7-16.1-46.6-.7-4.9,3.6-8.2,4.8-12.2.7-2.3-4.3-8.2-3-16.6.6-3.9,2.7-7,5.6-9.8-4.1-2.6-6.7-6.6-5.9-11.6.6-3.7,3.5-6.1,4.4-9.5,0,0,0-2.8.7-2.5,3.3,1.5,2.6,8.3,3.7,10.1,2,3.3,5.1,2.2,8.1,2.2s.5.4.2.7h-.1Z"/>
        <path class="st3" d="M202.1,159.8c-1.8,1-4.6-1-5.3-3-2.3-6.3,2.1-.2,2.9-.7,1.3.2-1.6-4,2.3-7.9,1.3-1.3,3.3-3.2,4.2-4.9,5.7-11.6,5.7-23.2-4.2-33.6-5-5.2-2.3-16.2-4.2-23.6-1.6-6-11.2-9.3-11.2-9.3.4-.6,1.8-.6,2.7-.6s4.8.6,6.5,1.6c9.4,5.8,6.4,16.6,8.4,26,1.1,5.1,7.7,10.7,8.8,16.3,1.6,8,0,13.8-1,17.7-1.7,6.5-5.4,11-8.2,13.4-1.8,1.5.3,7.5-1.7,8.6h0Z"/>
        <path class="st3" d="M142.2,155.9"/>
        <path class="st3" d="M142.6,152.6c.7-1.5,5.3,5.5,6.2,6.9,5.2,8,9.2,13.1,16.1,11.1,2.6-.7,6.7-8.5,6.2-5.5-.3,1.7-3,7.1-5.8,8.2s-5.2,1.4-7.9.5c-2.5-.9-4.7-2.4-6.8-4,3.3,12.7-5.2,21.2-5.3,21.4-3.3,2.7-7.4,1.9-9.2.2-3.6-3.5-4-7.6-5.7-12.1-.6-1.6-2.9-5.3-2.9-7.3.9-.9,3.3,3.4,3.7,4,1.2,2.1,5.4,11.2,9.5,11.6,4.4.4,6.1-4,6.5-4.9,1.6-3.6,2.3-6.4,2.1-10.2-.2-4.4-2.1-9.2-4.3-13.7l-2.4-6.2"/>
        <path class="st3" d="M142.2,155.9"/>
        <path class="st3" d="M138.6,150.9c5.1,9.7,4.3,16,4.1,18.1-.2,2.7.7,8.3-1.9,8-1.3-.2-1.2-6.9-.9-9.8.3-4,0-8-.9-11.9-.6-2.8-1.1-4.1-.3-4.3"/>
        <path class="st3" d="M143,143.8c-.9.9-1.6,2.2-2.6,2.5-4.2,1.1-5.5-2-7.9-4.5-.8-.8-3.9-3.4-5.7-4.6-5.2-3.2-3.1-8.5,2-10,2.6-.8,13.1-1.4,16-1.4s2.7.4,4.1,1.2c1.4.8,1.7,3.1,1.7,3.7,0,2.3-2,5.4-2.5,6.3-2,3.2-2.9,4.5-5.1,6.8h-.1.1ZM131.5,131.1c0,1.4,3.5,1.7,4.9,1.8,1.9.2,6.4-.1,8.1-.9.9-.4,2-.9,2-2s-1.7-.6-2.7-.4c-1.3.2-2.4.2-3.4.3-2.9,0-9,0-8.9,1.3h0Z"/>
        <path class="st3" d="M117.9,36.8c-2.9,1.4-6.2,0-9.4.4-6.1.7-11.2,5.3-15.1,9.6-.9,1-4.2,5.5-6.3,5.9-5.2,1-10,1-14.3,4.8-5.4,4.8-8.7,9.8-8.3,17.3,0,.8-.2,3.5-.5,3.9-.5.9-.4,2.2-2.2,2.2s-2.1-10-1.9-11.2c1.3-5.4,4.1-10.2,8.4-13.7,4.8-3.8,10.9-4.7,16.7-5.8,2.1-3.3,4.4-6.6,7.2-9.4,4.6-4.5,16-7.8,22.2-6.3.9.2,4.1,1.1,3.4,2.3h.1Z"/>
        <path class="st3" d="M166.7,61.1c-2.9-1.3-7.3-1.8-12,0-1.1.4-3.4,1.4-3.5.8,1.8-4.3,10.5-4.3,14.5-3.9,12.8,1.4,18,20.8,18.7,22.9,2.1,6.8-2.1,11.8,2.8,20.3.6,1.1,2.7,5.4,2.8,5.7,0,.3-.2.5-.5.5-4.9-3.2-9.8-10-9.1-16.2,1.4-12.1-4.7-26-13.8-30.1h.1Z"/>
        <path class="st3" d="M110.8,110.6c-2.6,1.6-4.6,2.6-7.8,2.2-1.8-.2-3.4-2.6-4.5-1.2-6.7,8.5-10.4,6.7-9.8,6,6.5-7.9,6.3-11.3,6.8-13,.9-3,2.8-7.9,8.4-9.1,3.5-.8,7.5,1.6,9.2,4.5,1.4,2.4,2.3,4.5.8,7.1-.6,1.1-2.1,2.9-3,3.5h0ZM104.4,105.5c.5.6,2.1.8,2.6,0,1-1.3,1.9-3.6.5-4.4-.5-.3-1.9.2-2.3.6-1.2,1.1-2,2.2-.7,3.7h0Z"/>
        <path class="st3" d="M168.3,101.9c.8,1,3.2,4.1,4.4,5,.9.7,2.1,1,3.1,1.6-2.8,3.7-7.2,0-8.8-2.2-.3,0-4,2.4-4.7,2.8-2.3,1.4-4.2,1.6-5.9.9-1.1-.5-3.8-2.8-4.6-4.2-2-3.8-.6-10,3.2-12,1.6-.9,4.2-.4,5.8.5,4.3,2.5,4.4,3.8,7.4,7.6,0,0,.1,0,.1,0ZM158.8,100.1c-1.5,1.5-.9,4.9,1.6,4,1.9-.7-.1-5.5-1.6-4Z"/>
        <path class="st3" d="M73.1,142.2c2.6,5.5,5.5,12.8,8.2,18.3,6.1,12.1,13,16,18.2,18.3,4.3,1.9,21.6,5.8,19.1,7.4-1.1.7-13.4,2.2-27.5-6.4-10.9-6.6-15.8-21.2-19.8-33.1-.6-1.9-2.2-7.9-2.1-8.3.3-1,2.7,1.4,3.8,3.8h0Z"/>
        <path class="st3" d="M186.2,123.9c.9.4,2.7,3.5,3.5,7.7,1.3,6.3.9,9.6.9,12.6,0,6.2-2.2,12.4-6.1,16.5-5.7,6-7.2,4.9-8.3,5.4-.9-.9,4.6-7.4,5.3-8.6,4.7-7.6,6.4-18.6,4.5-27.3-.5-2-2.5-7.6.2-6.3h0Z"/>
        <path class="st3" d="M67,113.6c-.6-.8,4.3-4.6,5-5.8,4.8-8.6-3.3-21,3.7-32.8,2.1-3.6,7.6-6.7,8.3-5.1.2.4-6.2,1.8-8,13-1.1,7.3,3.1,20.4-.6,26.2-3.3,5.2-8.5,4.6-8.5,4.6h0Z"/>
        <path class="st3" d="M135.6,152.3c.3.3-.1.6-.9,1.5-1.9,2.4-2.1,5-3.3,7.7-1.6,3.8-1.9,4.9-4.6,8.2-4.6,5.4-10.2,7.4-17.5,6.8-3.2-.3-8.5-1.3-9.7-3.2-.4-.6,0-.6.4-.7,1.4-.4,4.1-.5,5.6-.5s7.1.4,8.3.2c5.9-.6,10-5,13.7-9.7,2.2-2.7,3.4-6.6,5.8-9.2.4-.5,1.5-1.9,2.2-1.1h0Z"/>
        <path class="st3" d="M168,52.1c2.6,0,5.3-.5,4.8,1-3.4,3.5-8.7,3.1-12.7.9-5.8-3.2-6.5-11.1-12.2-14-5.2-2.7-10.5,2.9-12.3,2.7-1.5,0,1-2,1.9-3,2.9-3.1,7.7-3.8,11.7-2.6,6,1.8,8.1,7.6,11.3,12.2,1.1,1.6,5,3,7.5,2.9h0Z"/>
        <path class="st3" d="M139.6,28.4c.2,0,.4.2.4.4-.5,1.1-2.3,1.9-4.8,4.7-2.2,2.5-5.1,5.2-4.6,8.2.6,3.9-1,3-1.1,2.8-2.7-6.5,2.8-9.9,2.3-10.3-.7-.6-7.4,4.1-8,10.9-.2,2.4-.9,2.9-1.2,2.2-.9-2.2.2-8.7,2.1-11.2,5.2-6.6,13.1-7.4,14.9-7.6h0Z"/>
        <path class="st3" d="M99.5,82c.9.7-2.5,1.2-2.9,1.3-3.4.9-5.9,3.5-7.4,6.1-3.2,5.5.9,9.7-.8,14.4-1.1,2.9-2.8,3.9-5.5,4.4-1.3-1,1.7-2.5,2.5-7.7.4-2.5-.5-5.3-.3-7.8.4-4,1.9-7.4,5.3-9.4,2.8-1.7,5.6-1.7,9.1-1.4h0Z"/>
        <path class="st3" d="M152.2,69.5c-1.7-1.3,5.4-1.9,9.4-.5,6.6,2.3,6.6,12.8,10.1,17.4.6.8,2.7,2.4,1.2,3.4-.5.3-1.8,0-2.3-.3-5.7-3.4-4.9-12.1-9.3-17-2.7-3-7.5-1.9-9-3h0Z"/>
        <path class="st3" d="M162.7,180.7c8.3-4.9,10.5-9.5,11.9-10.7,1.1-1,.2,1.4-.3,2.5-1.4,3.1-4.3,6.5-7.6,9-6,4.5-13.6,5.4-12.6,3,.9-2.1,4.7-1.4,8.7-3.8h0Z"/>
      </g>
    </g>
  </g>
  <g class="st1">
    <g class="st1">
      <path class="st0" d="M304.3,115.2c-.3-11-.3-24.8-.6-33.4,0-1.1-.2-1.6-.7-1.6s-.9.4-1.3,1.8l-13.9,40.8c-.7,2.1-1,3.6-4.5,3.6s-3.7-1.3-4.6-3.6l-14-40.8c-.4-1.4-.8-1.8-1.2-1.8-.6,0-.8.5-.8,1.2,0,4-.5,11.5-.5,20.1s.2,18.9.2,21.5-1.5,3.2-5.3,3.2-5-1.1-5-3.1c0-3.7.8-11.4,1.4-21.6.5-10.1,1.2-22.3,1.2-25.3,0-4.8-5.4-4.3-5.4-6.8s5.3-4.9,10.4-4.9c9.1,0,14.1,3.8,18.3,16.5l6.4,18c.4.9.5,1.9,1.2,1.9s.9-1,1.3-1.9l6.4-18c4.2-12.8,10.4-16.5,17.7-16.5s9.8,2.9,9.8,4.9-4.9,2.4-4.9,6.8.9,26.7,1.3,37.4c.3,6.2,5.6,5.3,5.6,8.1s-4.1,5.2-8.6,5.2-9.6-2.3-9.9-11.6h0Z"/>
      <path class="st0" d="M331,111.3c0-5.1.7-9.7.7-15.6,0-9.4-4.6-7.2-4.6-10.1s5.6-4.9,9.8-4.9,7.4,3.4,7.4,10.3-.8,15-.8,19.9,1.7,8.2,5.2,8.2c5.2,0,9.1-6.3,9.1-19.4s-.4-10.7-.4-14.9,1.3-4.1,7-4.1,6.5,1.6,6.5,3.8-.7,12.9-.7,23.6,6,10.2,6,13.2-6,5.1-9.5,5.1c-7.5,0-5.4-7.9-7-7.9s-4.8,8.5-15.3,8.5-13.3-8-13.3-15.6h-.1Z"/>
      <path class="st0" d="M384.8,131.5c0-11.3.5-27.7.5-41.6s-.4-1.7-2.1-1.7c-2.8,0-4.3-.2-4.3-2.7s1.7-2.3,3.7-3.2c2.8-1.2,3.2-3.7,3.6-7.2,1.4-7.4,4.5-15.2,17.6-15.2s13.3,3.4,13.3,5.6-2.3,8.6-4.9,8.6-2.1-.9-3.2-2.4c-1.1-1.4-4-5.7-6.7-5.7s-4.5,2.2-4.5,9v4.5c0,1.1.6,1.7,1.7,1.7h9.4c1.6,0,2.1.9,2.1,2.8s-1.3,4.1-3,4.1h-8.6c-1.1,0-1.7.6-1.7,1.7v22.6c0,10.6.3,16.4.3,19.1s-1.6,4-6.8,4-6.7-2.6-6.7-4.1h.3Z"/>
      <path class="st0" d="M420.5,131.5c0-11.3.5-27.7.5-41.6s-.4-1.7-2.1-1.7c-2.8,0-4.3-.2-4.3-2.7s1.7-2.3,3.7-3.2c2.8-1.2,3.2-3.7,3.6-7,1.4-7.6,8.1-15.4,20.8-15.4s18.4,3.8,18.4,6.8-2.8,8.6-5.6,8.6-3.4-2.1-5.2-4.2c-1.8-2.3-4.3-5.1-8.2-5.1s-8.6,3-8.6,11.5v2c0,1.1.6,1.7,1.7,1.7,14.1,0,14.1-.7,19.4-.7s7,3.3,7,9.3-.9,17.8-.9,22.3c0,8.8,6.2,5.9,6.2,9.1s-4.2,5.4-9.1,5.4-9.5-3.6-9.5-12.2.7-11.4.7-16.6-.8-9.7-4-9.7h-9.6c-1.1,0-1.7.6-1.7,1.7v22.6c0,10.6.3,16.4.3,19.1s-1.6,4-6.8,4-6.7-2.6-6.7-4.1h0Z"/>
      <path class="st0" d="M474.3,122.8c0-2.1,1.2-13.3,1.2-23.9s-6-10.3-6-13.3,6.7-5.1,10.2-5.1c7.5,0,5.4,8,7,8s4.6-8.5,15.1-8.5,13.3,8,13.3,15.4-1.2,12.1-1.2,16.4c0,9.2,6.1,6.6,6.1,9.5s-4.1,5.5-8.8,5.5-9.6-3.7-9.6-12.2,1-14.1,1-18.8-1.6-8-5.2-8c-5.2,0-9.8,6.2-9.8,24.1v10.5c0,2.5-1.3,4-7,4s-6.4-1.5-6.4-3.7h0Z"/>
      <path class="st0" d="M528.3,122.9c0-2,.9-14.9.9-26.1v-19c0-6.7-4.7-5.4-4.7-8.4s3-4.6,18.2-4.6h2.6c17.6,0,27.8,8.3,27.8,20.4s-9.9,20.5-28.7,20.6-2.2.6-2.2,1.8v15.3c0,2.1-1.6,3.7-6.7,3.7s-7.3-1.6-7.3-3.7h.1ZM559.5,84.9c0-10.7-8.4-13.6-13.3-13.6h-2c-1.9,0-2.3.4-2.3,1.8s.2,2.5.2,4.6v19.9c0,1.3.4,1.8,2.4,1.8,8.7,0,15-4.3,15-14.4h0Z"/>
      <path class="st0" d="M581.6,111.3c0-5.1.7-9.7.7-15.6,0-9.4-4.6-7.2-4.6-10.1s5.6-4.9,9.8-4.9,7.4,3.4,7.4,10.3-.8,15-.8,19.9,1.7,8.2,5.2,8.2c5.2,0,9.1-6.3,9.1-19.4s-.4-10.7-.4-14.9,1.3-4.1,7-4.1,6.5,1.6,6.5,3.8-.7,12.9-.7,23.6,6,10.2,6,13.2-6,5.1-9.5,5.1c-7.5,0-5.4-7.9-7-7.9s-4.8,8.5-15.3,8.5-13.3-8-13.3-15.6h-.1Z"/>
      <path class="st0" d="M633.6,139.9c0-2.5,1.6-20.9,1.6-40.1s-6-11.1-6-14.2,5.9-5.3,9.5-5.3c7.4,0,5.3,8,6.9,8s4.4-8.3,14.6-8.3,17.1,8.7,17.1,23.7-8.3,23.1-18.5,23.1-11-5.6-12.1-5.6-.5.3-.5,1.6c0,3.9.5,14.6.5,17s-1.2,4-6.9,4-6.3-1.6-6.3-3.9h.1ZM664.2,104.2c0-10.2-2.9-16.5-8-16.5s-8.9,6.7-8.9,16.4,3.3,15.9,8.6,15.9,8.3-6.5,8.3-15.8h0Z"/>
      <path class="st0" d="M686.1,139.9c0-2.5,1.6-20.9,1.6-40.1s-6-11.1-6-14.2,5.9-5.3,9.5-5.3c7.4,0,5.3,8,6.9,8s4.4-8.3,14.6-8.3,17.1,8.7,17.1,23.7-8.3,23.1-18.5,23.1-11-5.6-12.1-5.6-.5.3-.5,1.6c0,3.9.5,14.6.5,17s-1.2,4-6.9,4-6.3-1.6-6.3-3.9h.1ZM716.7,104.2c0-10.2-2.9-16.5-8-16.5s-8.9,6.7-8.9,16.4,3.3,15.9,8.6,15.9,8.3-6.5,8.3-15.8h0Z"/>
      <path class="st0" d="M736.4,119c0-2.6,2.2-8.4,4.7-8.4,3.9,0,5.7,10.9,15.2,10.3s5.9-2.4,5.8-4.7-2.1-5.2-10.6-8.6c-8.6-3.3-14.1-7.7-14.1-14.6s5.8-13,18-13,17.8,3.5,17.8,6.5-2.4,8.8-4.7,8.8c-3.5,0-4.5-9.1-13.3-9.2s-6.1,1.4-6.1,4.3,1.9,4.6,10.9,8.2c8.7,3.4,14.1,7.8,14.1,15.1s-5.9,13.4-19,13.4-18.7-5.1-18.7-8.1h0Z"/>
    </g>
  </g>
  <g class="st1">
    <g class="st1">
      <path class="st0" d="M265.1,157.3h-2.2c-3,0-4.8,1.2-5.9,3.7v18.2h-4.4v-25.7h4.2v3c1.4-2.3,3.6-3.4,6.1-3.4s1.4,0,2,.3v4.2h0l.2-.3h0Z"/>
      <path class="st0" d="M284.3,179c-.3-.5-.4-1.4-.6-2.7-2,2.2-4.5,3.2-7.3,3.2s-4.7-.6-6.2-2.2-2.4-3.2-2.4-5.5,1.1-4.8,3.1-6.2,5-2.3,8.6-2.3h4.2v-2c0-1.6-.4-2.8-1.4-3.7s-2.3-1.4-4-1.4-3,.4-4,1.2c-1.1.8-1.6,1.7-1.6,3h-4.4c0-1.4.4-2.5,1.4-3.7.9-1.2,2.2-2.2,3.7-2.8,1.6-.6,3.3-1.1,5.2-1.1,3,0,5.3.8,7,2.3,1.7,1.4,2.5,3.4,2.7,6.1v11.8c0,2.4.3,4.2.9,5.6v.4h-4.9ZM276.9,175.7c1.4,0,2.7-.4,3.9-1.1s2.2-1.6,2.7-2.8v-5.3h-3.4c-5.3,0-8.1,1.6-8.1,4.7s.4,2.4,1.4,3.2,2.2,1.2,3.6,1.2h0v.2h-.1Z"/>
      <path class="st0" d="M294.7,146.5c0-.6.3-1.4.6-1.9s1.1-.8,2-.8,1.4.3,2,.8.6,1.1.6,1.9-.3,1.4-.6,1.7-1.1.6-2,.6-1.4-.3-2-.6-.6-1.1-.6-1.7ZM299.6,179h-4.4v-25.7h4.4v25.7Z"/>
      <path class="st0" d="M321.6,172.3c0-1.2-.4-2.2-1.4-2.8s-2.4-1.2-4.7-1.7c-2.3-.5-4-1.1-5.3-1.7s-2.3-1.4-3-2.4-.9-2-.9-3.3c0-2.2.9-3.9,2.7-5.3s4-2.2,6.8-2.2,5.3.8,7,2.3c1.9,1.4,2.7,3.4,2.7,5.8h-4.4c0-1.2-.5-2.3-1.4-3.1s-2.3-1.4-3.9-1.4-2.8.4-3.7,1.1c-.9.6-1.4,1.6-1.4,2.7s.4,1.9,1.2,2.4c.8.5,2.4,1.1,4.5,1.6s4,1.1,5.3,1.7,2.4,1.4,3.1,2.4.9,2.2.9,3.4c0,2.3-.9,4.2-2.8,5.5-1.9,1.4-4.2,2.2-7.2,2.2s-3.9-.4-5.5-1.1-2.8-1.7-3.7-3.1-1.4-2.7-1.4-4.2h4.4c0,1.4.6,2.7,1.7,3.4s2.5,1.4,4.4,1.4,3-.4,4-1.1,1.4-1.6,1.4-2.7l.3.3h.3Z"/>
      <path class="st0" d="M342.4,179.6c-3.4,0-6.2-1.2-8.6-3.4-2.2-2.3-3.3-5.3-3.3-9.2v-.8c0-2.5.5-4.8,1.4-6.8s2.4-3.6,4.2-4.7,3.6-1.7,5.8-1.7c3.3,0,6,1.1,7.8,3.3,1.9,2.3,2.8,5.3,2.8,9.5v1.9h-17.5c0,2.5.8,4.5,2.3,6.1s3.2,2.4,5.5,2.4,2.8-.3,4-.9c1.1-.6,2-1.4,2.8-2.5l2.7,2.2c-2.2,3.3-5.3,5-9.8,5h0v-.4h0ZM341.9,156.5c-1.7,0-3.2.6-4.4,2s-2,3.1-2.3,5.5h12.9v-.3c0-2.3-.6-4-1.9-5.2-1.1-1.2-2.5-1.9-4.4-1.9h0Z"/>
      <path class="st0" d="M356.4,166c0-4,.9-7,2.8-9.5s4.2-3.6,7.3-3.6,5.3,1.1,7.2,3.1v-13.4h4.4v36.6h-4l-.3-2.8c-1.7,2.2-4.2,3.2-7.3,3.2s-5.5-1.2-7.3-3.6c-1.9-2.4-2.8-5.6-2.8-9.6v-.3h0ZM360.9,166.5c0,3,.6,5.2,1.9,6.8s2.8,2.5,5,2.5,4.8-1.2,6.1-3.7v-11.8c-1.4-2.4-3.3-3.6-6-3.6s-3.9.8-5.1,2.5-1.9,4.2-1.9,7.3h0Z"/>
      <path class="st0" d="M419.9,173.1l5-19.6h4.4l-7.5,25.7h-3.6l-6.2-19.5-6.1,19.5h-3.6l-7.5-25.7h4.4l5.1,19.2,6-19.2h3.6l6.1,19.6h0Z"/>
      <path class="st0" d="M433.7,146.5c0-.6.3-1.4.6-1.9s1.1-.8,2-.8,1.4.3,2,.8.6,1.1.6,1.9-.3,1.4-.6,1.7-1.1.6-2,.6-1.4-.3-2-.6-.6-1.1-.6-1.7ZM438.4,179h-4.4v-25.7h4.4v25.7Z"/>
      <path class="st0" d="M451.5,147.1v6.2h4.8v3.3h-4.8v16c0,1.1.3,1.9.6,2.3.4.5,1.2.8,2.2.8s1.2,0,2.2-.3v3.6c-1.2.3-2.3.5-3.3.5-2,0-3.4-.5-4.4-1.7-.9-1.2-1.4-3-1.4-5.1v-16h-4.7v-3.3h4.7v-6.2h4.4v-.2h-.3Z"/>
      <path class="st0" d="M465.8,156.5c2-2.4,4.5-3.6,7.6-3.6,5.5,0,8.1,3.1,8.3,9.2v17h-4.4v-17.1c0-1.9-.4-3.2-1.4-4.2-.8-.9-2.2-1.4-3.9-1.4s-2.7.4-3.7,1.2c-1.1.8-1.9,1.7-2.5,3v18.2h-4.4v-36.6h4.4v14.2h0Z"/>
      <path class="st0" d="M505,179h-4.4v-36.6h4.4v36.6Z"/>
      <path class="st0" d="M510.8,166c0-2.5.5-4.8,1.4-6.8s2.4-3.6,4.2-4.7c1.7-1.1,3.7-1.6,6-1.6,3.4,0,6.2,1.2,8.6,3.6,2.2,2.4,3.2,5.6,3.2,9.8v.3c0,2.5-.5,4.8-1.4,6.8s-2.3,3.6-4.2,4.7c-1.7,1.1-3.9,1.6-6.1,1.6-3.4,0-6.2-1.2-8.6-3.6-2.2-2.4-3.2-5.6-3.2-9.6v-.3h0v-.2h0ZM515.3,166.5c0,2.8.6,5.2,2,6.8,1.4,1.7,3.1,2.5,5.3,2.5s4-.9,5.3-2.7,2-4.2,2-7.3-.6-5.1-2-6.8-3.1-2.7-5.3-2.7-3.9.8-5.2,2.5c-1.4,1.7-2,4.2-2,7.5h0v.2h0Z"/>
      <path class="st0" d="M548,173.1l6.4-19.8h4.5l-9.2,25.7h-3.3l-9.3-25.7h4.5l6.5,19.8h-.1Z"/>
      <path class="st0" d="M573.7,179.6c-3.4,0-6.2-1.2-8.6-3.4-2.2-2.3-3.3-5.3-3.3-9.2v-.8c0-2.5.5-4.8,1.4-6.8s2.4-3.6,4.2-4.7c1.7-1.1,3.6-1.7,5.8-1.7,3.3,0,6,1.1,7.8,3.3,1.9,2.3,2.8,5.3,2.8,9.5v1.9h-17.5c0,2.5.8,4.5,2.3,6.1s3.2,2.4,5.5,2.4,2.8-.3,4-.9c1.1-.6,2-1.4,2.8-2.5l2.7,2.2c-2.2,3.3-5.3,5-9.8,5h0v-.4h-.1ZM573.2,156.5c-1.7,0-3.2.6-4.4,2s-2,3.1-2.3,5.5h12.9v-.3c0-2.3-.6-4-1.9-5.2-1.1-1.2-2.5-1.9-4.4-1.9h.1Z"/>
    </g>
  </g>
</svg>