<?xml version="1.0" encoding="UTF-8"?>
<svg id="Layer_1" xmlns="http://www.w3.org/2000/svg" version="1.1" viewBox="0 0 218.9 201.6">
  <!-- Generator: Adobe Illustrator 29.2.1, SVG Export Plug-In . SVG Version: 2.1.0 Build 116)  -->
  <defs>
    <style>
      .st0 {
        fill: #f6dfb9;
      }
    </style>
  </defs>
  <path class="st0" d="M31.8,70.1c-11.9,11-13.6-4.9-13.6-4.9-3.7,9.7,3.9,13.9,6.3,15.4.5.3.7,1,.4,1.5-.7,1.5-9.7,4.8-7.4,17.9,1,5.5,3.7,7.3,3.8,10.6,0,3.7-2.8,7.5-4.1,10.4-3.4,7.2,2.7,31.5,14.3,53.2.9,1.8,2.8,1.2,3.2.8.9-.8,1.2-2.2,1.8-3.7,2.5-6.5,3.6-19.2,1.9-25.9-.4-1.5-2.1-5.5-.4-4.5,3.1,2.4,5.3,4.4,6,8.4,1.3,8.1.3,22.9-4.7,29.6-3.3,4.3-7.3,3-10.4-.7-4.2-5.2-15.1-32.3-18.1-52.6-.8-5.5,4.1-9.2,5.5-13.8.8-2.6-4.9-9.2-3.3-18.7.7-4.4,3.1-7.9,6.3-11-4.6-3-7.5-7.4-6.6-13.1.7-4.2,3.9-6.9,4.9-10.7,0,0,0-3.1.7-2.8,3.7,1.7,3,9.4,4.2,11.3,2.3,3.8,5.8,2.4,9.1,2.5.4,0,.5.5.3.7h0Z"/>
  <path class="st0" d="M197,159.7c-2,1.2-5.2-1.1-5.9-3.4-2.5-7.1,2.3-.2,3.3-.8,1.5.2-1.8-4.5,2.6-9,1.5-1.5,3.8-3.6,4.7-5.6,6.4-13.1,6.4-26.2-4.8-37.8-5.7-5.9-2.6-18.3-4.8-26.6-1.8-6.8-12.6-10.5-12.6-10.5.4-.7,2-.7,3-.7,1.3,0,5.4.6,7.3,1.8,10.6,6.6,7.2,18.7,9.5,29.4,1.2,5.8,8.7,12.1,9.9,18.4,1.8,9.1,0,15.6-1.1,20-1.9,7.4-6.1,12.5-9.2,15.1-2,1.7.4,8.4-1.9,9.7h0Z"/>
  <path class="st0" d="M129.4,155.3"/>
  <path class="st0" d="M129.8,151.6c.7-1.7,6,6.2,7,7.8,5.9,9,10.3,14.7,18.2,12.5,3-.8,7.5-9.6,7-6.2-.3,2-3.4,8-6.5,9.3s-5.9,1.6-8.9.5c-2.8-1-5.3-2.7-7.7-4.5,3.7,14.3-5.8,23.9-6,24.1-3.7,3.1-8.3,2.2-10.4.2-4.1-3.9-4.6-8.5-6.5-13.6-.7-1.8-3.2-6-3.2-8.3,1-1,3.8,3.8,4.2,4.5,1.4,2.4,6.1,12.7,10.8,13.1,5,.4,6.9-4.5,7.4-5.5,1.8-4,2.6-7.2,2.4-11.5-.2-5-2.4-10.4-4.9-15.5l-1.1-2.5"/>
  <path class="st0" d="M129.4,155.3"/>
  <path class="st0" d="M125.4,149.7c5.7,11,4.8,18.1,4.6,20.4-.3,3,.8,9.4-2.1,9-1.4-.2-1.3-7.8-1.1-11.1.4-4.5,0-9.1-1-13.4-.7-3.2-1.2-4.7-.4-4.9"/>
  <path class="st0" d="M130.2,141.6c-1,1.1-1.7,2.6-2.9,2.9-4.7,1.3-6.1-2.3-8.9-5-.9-.9-4.4-3.9-6.5-5.2-5.9-3.7-3.5-9.6,2.3-11.3,2.9-.9,14.8-1.6,18.1-1.6,2.2,0,3,.5,4.6,1.3,1.6.9,1.9,3.5,1.9,4.2,0,2.6-2.2,6-2.8,7.1-2.3,3.6-3.3,5-5.8,7.6h0ZM117.4,127.4c0,1.6,4,1.9,5.5,2.1,2.2.2,7.2-.2,9.1-1,1-.5,2.2-1,2.3-2.3,0-1-1.9-.6-3.1-.5-1.5.2-2.7.3-3.8.3-3.3,0-10.1,0-10,1.4h0Z"/>
  <path class="st0" d="M102,21.1c-3.2,1.5-7,0-10.7.4-6.9.7-12.6,5.9-17,10.9-1,1.1-4.7,6.1-7.1,6.6-5.8,1.1-11.3,1.1-16.1,5.4-6.1,5.4-9.8,11-9.3,19.5,0,.9-.2,3.9-.5,4.4-.6,1-.4,2.5-2.5,2.4-2.5,0-2.4-11.3-2.1-12.7,1.4-6.1,4.6-11.5,9.5-15.5,5.4-4.3,12.3-5.3,18.9-6.5,2.4-3.7,4.9-7.5,8.1-10.6,5.2-5.1,18.1-8.7,25-7.1,1,.2,4.6,1.3,3.8,2.6h0Z"/>
  <path class="st0" d="M157,48.4c-3.3-1.5-8.2-2-13.5,0-1.2.4-3.8,1.6-4,.9,2-4.9,11.8-4.9,16.4-4.4,14.5,1.6,20.3,23.4,21.1,25.8,2.3,7.7-2.3,13.3,3.2,22.9.7,1.2,3.1,6,3.1,6.4,0,.6,0,.6-.5.5-5.5-3.6-11-11.3-10.2-18.2,1.6-13.6-5.3-29.3-15.5-33.9h0Z"/>
  <path class="st0" d="M94,104.2c-2.9,1.9-5.2,2.9-8.8,2.4-2-.2-3.9-2.9-5.1-1.4-7.6,9.6-11.7,7.5-11.1,6.8,7.4-8.9,7.1-12.7,7.7-14.6,1-3.3,3.1-8.9,9.4-10.3,3.9-.9,8.5,1.8,10.4,5.1,1.6,2.7,2.5,5,.9,8-.6,1.2-2.3,3.3-3.4,4h0,0ZM86.8,98.6c.6.7,2.4.9,2.9,0,1.1-1.5,2.1-4.1.5-4.9-.6-.3-2.1.3-2.6.7-1.3,1.3-2.2,2.5-.8,4.1h0Z"/>
  <path class="st0" d="M158.8,94.4c.9,1.2,3.7,4.7,4.9,5.7,1.1.8,2.4,1.1,3.5,1.8-3.2,4.2-8.1-.1-9.9-2.5-.3,0-4.5,2.7-5.3,3.2-2.6,1.5-4.8,1.8-6.6,1-1.3-.6-4.3-3.2-5.1-4.7-2.3-4.3-.7-11.2,3.6-13.5,1.8-1,4.8-.5,6.5.6,4.8,2.8,5,4.3,8.3,8.6h0ZM148.1,92.4c-1.7,1.7-1,5.5,1.8,4.5,2.1-.8-.1-6.2-1.8-4.5Z"/>
  <path class="st0" d="M51.4,139.4c2.9,6.2,6.2,14.4,9.3,20.6,6.8,13.7,14.6,18,20.5,20.7,4.8,2.2,24.4,6.6,21.6,8.3-1.2.7-15.1,2.5-31-7.2-12.3-7.5-17.8-23.9-22.3-37.3-.7-2.1-2.4-8.9-2.3-9.4.3-1.1,3,1.6,4.3,4.3h0s0,0,0,0Z"/>
  <path class="st0" d="M179.1,119.2c1,.5,3,4,4,8.7,1.5,7.1,1,10.9,1,14.2,0,7-2.5,14-6.9,18.7-6.5,6.8-8.1,5.5-9.3,6.1-1-1,5.2-8.4,6-9.7,5.3-8.6,7.2-21,5-30.8-.5-2.3-2.9-8.6.2-7.1h0s0,0,0,0Z"/>
  <path class="st0" d="M44.6,107.7c-.7-.9,4.8-5.2,5.6-6.6,5.4-9.7-3.7-23.7,4.2-37,2.4-4,8.5-7.6,9.4-5.8.2.5-7,2-9,14.7-1.3,8.2,3.5,23-.7,29.5-3.7,5.9-9.6,5.1-9.6,5.1h0Z"/>
  <path class="st0" d="M122,151.3c.3.4-.2.6-1,1.7-2.1,2.7-2.4,5.6-3.7,8.6-1.8,4.3-2.1,5.6-5.2,9.2-5.1,6.1-11.5,8.3-19.7,7.6-3.6-.3-9.6-1.4-11-3.6-.4-.7,0-.7.5-.8,1.6-.5,4.6-.5,6.3-.5s8.1.4,9.3.3c6.7-.7,11.2-5.7,15.5-11,2.4-3.1,3.8-7.4,6.5-10.4.5-.5,1.7-2.1,2.5-1.2h0Z"/>
  <path class="st0" d="M158.5,38.3c3-.1,6-.6,5.4,1.1-3.8,3.9-9.8,3.5-14.3,1-6.5-3.6-7.3-12.5-13.8-15.8-5.9-3.1-11.8,3.3-13.8,3.1-1.7-.2,1.1-2.3,2.1-3.4,3.3-3.4,8.7-4.3,13.2-3,6.8,2,9.2,8.6,12.7,13.7,1.3,1.8,5.6,3.4,8.5,3.3Z"/>
  <path class="st0" d="M126.4,11.6c.3,0,.5.2.4.5-.5,1.2-2.6,2.2-5.4,5.3-2.5,2.8-5.7,5.9-5.2,9.2.7,4.4-1.1,3.4-1.3,3.1-3-7.3,3.2-11.1,2.5-11.6-.8-.7-8.4,4.6-9,12.3-.2,2.7-1,3.3-1.3,2.5-1-2.5.2-9.8,2.4-12.6,5.9-7.4,14.8-8.4,16.8-8.6h0Z"/>
  <path class="st0" d="M81.2,72c1,.7-2.9,1.4-3.3,1.5-3.8,1-6.6,4-8.3,6.8-3.6,6.2,1,11-.9,16.3-1.2,3.2-3.2,4.4-6.2,5-1.5-1.1,2-2.9,2.8-8.7.4-2.8-.5-5.9-.3-8.7.4-4.5,2.1-8.3,5.9-10.6,3.2-1.9,6.3-1.9,10.2-1.6h0Z"/>
  <path class="st0" d="M140.7,57.9c-1.9-1.4,6-2.1,10.6-.5,7.5,2.6,7.5,14.4,11.4,19.6.7.9,3,2.8,1.3,3.8-.6.4-2.1,0-2.6-.4-6.5-3.8-5.6-13.6-10.5-19.1-3-3.4-8.4-2.1-10.2-3.4h0Z"/>
  <path class="st0" d="M152.5,183.3c9.3-5.5,11.8-10.7,13.4-12,1.3-1.1.2,1.6-.3,2.8-1.5,3.5-4.9,7.4-8.6,10.1-6.7,5.1-15.3,6-14.2,3.4,1-2.4,5.3-1.6,9.8-4.3h0Z"/>
</svg>