<?xml version="1.0" encoding="UTF-8"?>
<svg id="Layer_1" xmlns="http://www.w3.org/2000/svg" version="1.1" viewBox="0 0 749.8 201.6">
  <!-- Generator: Adobe Illustrator 29.2.1, SVG Export Plug-In . SVG Version: 2.1.0 Build 116)  -->
  <defs>
    <style>
      .st0 {
        fill: #f7e0ba;
      }

      .st1 {
        font-family: Sirenia-Light, Sirenia;
        font-size: 99.4px;
        font-weight: 300;
      }

      .st1, .st2 {
        isolation: isolate;
      }

      .st1, .st3 {
        fill: #fff;
      }

      .st4 {
        fill: #333;
      }
    </style>
  </defs>
  <g>
    <g class="st2">
      <g class="st2">
        <text class="st1" transform="translate(239.3 129.4)"><tspan x="0" y="0">MuffinPupps</tspan></text>
      </g>
    </g>
    <g class="st2">
      <g class="st2">
        <text class="st1" transform="translate(244.1 175)"><tspan x="0" y="0">r</tspan></text>
        <text class="st1" transform="translate(255.7 175)"><tspan x="0" y="0">aised with l</tspan></text>
        <text class="st1" transform="translate(434.4 175)"><tspan x="0" y="0">o</tspan></text>
        <text class="st1" transform="translate(454.5 175)"><tspan x="0" y="0">ve</tspan></text>
      </g>
    </g>
  </g>
  <g>
    <path class="st0" d="M96,199.1c-26.3-3.2-68.7-13.8-84.9-46.2-14.8-29.8-17.2-59.1,7.6-85.8,11.7-12.7,30.7-16,40.2-31.6C81.7-2.3,135.6-11.2,169,15.1c18.2,14.3,64.3,66.3,41.8,148.8-10,36.5-59.3,41.9-114.8,35.2h0Z"/>
    <g>
      <path class="st3" d="M122.3,129.1c.6,3.2,7,4.7,10.9,5,2.9.2,6.4.4,8.3-1.9,1-1.3,1.6-3.4.8-5-.8-1.5-2.4-1.9-4.6-2.4-2.6-.6-5.3-.3-10.6.4-2.1.3-3.7.6-4.4,1.8-.6,1-.4,2.1-.4,2.2h0Z"/>
      <path class="st3" d="M149.3,94.6c-.5,1.5-1.3,4.1-.1,6.7.4.8,1.2,2.8,3.3,3.4,2.5.7,5.4-.8,6.4-3.2,1-2.6-.9-5-2.4-6.9-.6-.7-3.2-4-5.2-3.3-1,.3-1.4,1.5-1.9,3.2h0Z"/>
      <path class="st3" d="M94.9,100.2c.3-2.7,2.8-5.3,5.6-5.1,3.1.2,5.4,3.7,4.7,6.9-.7,3.1-4.1,5.2-7,4.2-2.4-.8-3.6-3.6-3.3-6h0Z"/>
      <g>
        <path class="st4" d="M49.5,77.6c-10.6,9.7-12-4.3-12-4.3-3.3,8.6,3.4,12.3,5.6,13.7.5.3.6.8.4,1.3-.6,1.3-8.6,4.2-6.6,15.8.9,4.9,3.3,6.4,3.4,9.4,0,3.3-2.4,6.7-3.7,9.2-3,6.4,2.4,27.9,12.6,47.2.8,1.6,2.4,1.1,2.9.7.8-.8,1-1.9,1.6-3.3,2.2-5.8,3.2-17,1.7-23-.3-1.3-1.9-4.9-.3-4,2.8,2.1,4.7,3.9,5.3,7.5,1.1,7.2.3,20.3-4.2,26.2-2.9,3.8-6.5,2.7-9.2-.7-3.7-4.6-13.4-28.7-16.1-46.6-.7-4.9,3.6-8.2,4.9-12.2.7-2.3-4.3-8.2-3-16.6.6-3.9,2.7-7,5.6-9.8-4.1-2.6-6.7-6.6-5.9-11.6.6-3.7,3.5-6.1,4.4-9.5,0,0,0-2.8.7-2.5,3.3,1.5,2.6,8.3,3.7,10.1,2,3.3,5.1,2.2,8.1,2.2.3,0,.5.4.2.7h0,0Z"/>
        <path class="st4" d="M196,157c-1.8,1-4.6-1-5.3-3-2.3-6.3,2.1-.2,2.9-.7,1.3.2-1.6-4,2.3-7.9,1.3-1.3,3.4-3.2,4.2-4.9,5.6-11.6,5.7-23.2-4.2-33.6-5-5.2-2.3-16.2-4.2-23.6-1.6-6-11.2-9.3-11.2-9.3.4-.6,1.8-.6,2.7-.6,1.1,0,4.8.6,6.5,1.6,9.4,5.8,6.4,16.6,8.4,26,1.1,5.1,7.7,10.7,8.8,16.3,1.6,8,0,13.9-1,17.7-1.6,6.5-5.4,11-8.2,13.4-1.8,1.5.3,7.5-1.7,8.6h0Z"/>
        <path class="st4" d="M136.4,149.8c.6-1.5,5.3,5.5,6.2,6.9,5.2,8,9.2,13.1,16.1,11.1,2.6-.7,6.7-8.5,6.2-5.5-.3,1.7-3,7.1-5.8,8.2s-5.2,1.4-7.9.5c-2.5-.9-4.7-2.4-6.8-4,3.3,12.7-5.2,21.2-5.3,21.4-3.3,2.7-7.4,1.9-9.2.2-3.7-3.5-4-7.6-5.7-12.1-.6-1.6-2.9-5.3-2.9-7.3.9-.9,3.3,3.4,3.7,4,1.2,2.1,5.4,11.2,9.5,11.6,4.4.4,6.1-4,6.5-4.9,1.6-3.6,2.3-6.4,2.1-10.2-.2-4.4-2.1-9.2-4.3-13.8l-1-2.2"/>
        <path class="st4" d="M132.5,148.1c5.1,9.7,4.3,16,4.1,18.1-.2,2.7.7,8.3-1.9,8-1.3-.2-1.2-6.9-.9-9.9.3-4,0-8-.9-11.9-.6-2.8-1.1-4.1-.3-4.3"/>
        <path class="st4" d="M136.8,140.9c-.9.9-1.5,2.3-2.5,2.6-4.2,1.1-5.4-2-7.9-4.5s-3.9-3.4-5.7-4.6c-5.2-3.2-3.1-8.5,2-10,2.6-.8,13.1-1.4,16-1.4,1.9,0,2.7.4,4.1,1.2,1.4.8,1.7,3.2,1.7,3.7,0,2.3-1.9,5.3-2.5,6.2-2,3.2-2.9,4.5-5.1,6.8h0ZM125.4,128.3c0,1.4,3.5,1.7,4.9,1.8,1.9.2,6.4-.1,8.1-.9.9-.4,2-.9,2-2,0-.9-1.7-.6-2.7-.4-1.3.2-2.4.2-3.4.3-2.9,0-9,0-8.9,1.2h0Z"/>
        <path class="st4" d="M111.8,34c-2.9,1.4-6.2,0-9.4.4-6.1.7-11.2,5.2-15.1,9.7-.9,1-4.2,5.5-6.3,5.9-5.2,1-10,1-14.3,4.8-5.4,4.8-8.7,9.8-8.3,17.3,0,.8-.2,3.5-.5,3.9-.5.9-.4,2.2-2.2,2.2-2.2,0-2.1-10-1.8-11.2,1.3-5.4,4.1-10.2,8.5-13.7,4.8-3.8,10.9-4.7,16.7-5.8,2.1-3.3,4.4-6.6,7.2-9.4,4.6-4.5,16-7.8,22.2-6.2.9.2,4.1,1.1,3.4,2.3h0Z"/>
        <path class="st4" d="M160.6,58.3c-2.9-1.3-7.3-1.8-11.9,0-1.1.4-3.4,1.4-3.5.8,1.8-4.3,10.5-4.3,14.5-3.9,12.8,1.4,18,20.8,18.7,22.9,2.1,6.8-2.1,11.8,2.8,20.3.6,1.1,2.7,5.3,2.8,5.7,0,.5,0,.5-.5.5-4.9-3.2-9.8-10-9.1-16.2,1.4-12.1-4.7-26-13.8-30.1h0Z"/>
        <path class="st4" d="M104.7,107.8c-2.6,1.6-4.6,2.6-7.8,2.2-1.8-.2-3.4-2.6-4.6-1.2-6.7,8.5-10.4,6.7-9.8,6,6.5-7.9,6.3-11.3,6.8-13,.9-3,2.8-7.9,8.4-9.1,3.5-.8,7.5,1.6,9.2,4.5,1.4,2.4,2.3,4.5.8,7.1-.6,1.1-2.1,2.9-3,3.5h0,0ZM98.3,102.8c.5.6,2.1.8,2.6,0,.9-1.3,1.9-3.6.4-4.4-.5-.3-1.9.2-2.3.6-1.2,1.1-2,2.2-.7,3.7h0Z"/>
        <path class="st4" d="M162.2,99.1c.8,1,3.2,4.1,4.4,5,.9.7,2.1,1,3.1,1.6-2.8,3.7-7.2-.1-8.8-2.2-.3,0-4,2.4-4.7,2.8-2.3,1.3-4.2,1.6-5.9.9-1.1-.5-3.8-2.8-4.6-4.2-2-3.8-.6-10,3.2-12,1.6-.8,4.2-.4,5.8.5,4.3,2.5,4.4,3.8,7.4,7.6h0ZM152.7,97.3c-1.5,1.5-.9,4.9,1.6,4,1.9-.7-.1-5.5-1.6-4Z"/>
        <path class="st4" d="M67,139c2.6,5.5,5.5,12.8,8.2,18.3,6.1,12.1,13,16,18.2,18.3,4.3,1.9,21.6,5.8,19.1,7.4-1.1.7-13.4,2.2-27.5-6.4-10.9-6.6-15.8-21.2-19.8-33.1-.6-1.9-2.2-7.9-2.1-8.3.3-1,2.7,1.4,3.8,3.8h0s0,0,0,0h0Z"/>
        <path class="st4" d="M180.1,121.1c.9.4,2.7,3.6,3.5,7.7,1.3,6.3.9,9.6.9,12.6,0,6.2-2.2,12.4-6.1,16.5-5.7,6-7.2,4.9-8.3,5.4-.9-.9,4.6-7.4,5.3-8.6,4.7-7.6,6.4-18.6,4.5-27.3-.4-2-2.5-7.6.2-6.3h0s0,0,0,0h0Z"/>
        <path class="st4" d="M60.8,110.8c-.6-.8,4.3-4.6,5-5.8,4.8-8.6-3.3-21,3.7-32.8,2.1-3.6,7.6-6.7,8.3-5.1.2.4-6.2,1.8-8,13-1.1,7.3,3.1,20.3-.6,26.2-3.3,5.2-8.5,4.6-8.5,4.6h0Z"/>
        <path class="st4" d="M129.5,149.5c.3.3-.1.6-.9,1.5-1.8,2.4-2.1,5-3.3,7.7-1.6,3.8-1.9,4.9-4.6,8.2-4.6,5.4-10.2,7.4-17.5,6.8-3.2-.3-8.5-1.3-9.7-3.2-.4-.6,0-.6.4-.7,1.4-.4,4.1-.4,5.6-.4s7.1.4,8.3.2c5.9-.6,10-5,13.8-9.7,2.2-2.7,3.4-6.6,5.8-9.2.4-.5,1.5-1.9,2.2-1.1h0s0,0,0,0Z"/>
        <path class="st4" d="M161.9,49.3c2.6-.1,5.3-.5,4.8,1-3.4,3.5-8.7,3.1-12.7.9-5.8-3.2-6.5-11.1-12.2-14-5.2-2.7-10.4,2.9-12.3,2.7-1.5-.1.9-2,1.9-3,2.9-3.1,7.7-3.8,11.7-2.6,6,1.8,8.1,7.6,11.2,12.2,1.1,1.6,5,3,7.5,2.9h0Z"/>
        <path class="st4" d="M133.5,25.6c.2,0,.4.2.4.4-.4,1.1-2.3,1.9-4.8,4.7-2.2,2.5-5.1,5.2-4.6,8.2.6,3.9-1,3-1.1,2.8-2.7-6.5,2.8-9.9,2.3-10.3-.7-.6-7.4,4.1-8,10.9-.2,2.4-.9,2.9-1.2,2.2-.9-2.2.2-8.7,2.1-11.2,5.2-6.6,13.1-7.4,14.9-7.6h0Z"/>
        <path class="st4" d="M93.3,79.2c.9.7-2.5,1.2-2.9,1.3-3.4.9-5.9,3.5-7.4,6.1-3.2,5.5.9,9.8-.8,14.4-1.1,2.9-2.8,3.9-5.5,4.4-1.3-1,1.7-2.5,2.5-7.7.4-2.5-.5-5.3-.2-7.8.4-4,1.9-7.4,5.3-9.4,2.8-1.7,5.6-1.7,9.1-1.4h0Z"/>
        <path class="st4" d="M146.1,66.7c-1.7-1.3,5.4-1.9,9.4-.5,6.6,2.3,6.6,12.8,10.1,17.4.6.8,2.7,2.4,1.2,3.4-.5.3-1.8,0-2.3-.3-5.7-3.4-4.9-12.1-9.3-17-2.7-3-7.5-1.9-9-3h0Z"/>
        <path class="st4" d="M156.6,177.9c8.3-4.9,10.5-9.5,11.9-10.7,1.1-.9.2,1.4-.3,2.5-1.4,3.1-4.3,6.5-7.6,9-6,4.5-13.6,5.4-12.6,3,.9-2.1,4.7-1.4,8.7-3.8h0,0Z"/>
      </g>
    </g>
  </g>
</svg>